<?xml version="1.0" encoding="UTF-8" standalone="no"?>
<svg
   inkscape:export-ydpi="96"
   inkscape:export-xdpi="96"
   width="32"
   height="32"
   id="svg11300"
   sodipodi:version="0.32"
   inkscape:version="1.1.2 (76b9e6a115, 2022-02-25)"
   sodipodi:docname="ubiquity-32x32.svg"
   inkscape:output_extension="org.inkscape.output.svg.inkscape"
   version="1.0"
   style="display:inline;enable-background:new"
   inkscape:export-filename="/home/stuart/Pictures/disk.png"
   xmlns:inkscape="http://www.inkscape.org/namespaces/inkscape"
   xmlns:sodipodi="http://sodipodi.sourceforge.net/DTD/sodipodi-0.dtd"
   xmlns:xlink="http://www.w3.org/1999/xlink"
   xmlns="http://www.w3.org/2000/svg"
   xmlns:svg="http://www.w3.org/2000/svg"
   xmlns:rdf="http://www.w3.org/1999/02/22-rdf-syntax-ns#"
   xmlns:cc="http://creativecommons.org/ns#"
   xmlns:dc="http://purl.org/dc/elements/1.1/">
  <title
     id="title3004">Suru Icon Theme Template</title>
  <sodipodi:namedview
     stroke="#ef2929"
     fill="#f57900"
     id="base"
     pagecolor="#ffffff"
     bordercolor="#000000"
     borderopacity="0.25490196"
     inkscape:pageopacity="0"
     inkscape:pageshadow="2"
     inkscape:zoom="5.6568542"
     inkscape:cx="13.346641"
     inkscape:cy="6.1871843"
     inkscape:current-layer="layer7"
     showgrid="false"
     inkscape:grid-bbox="true"
     inkscape:document-units="px"
     inkscape:showpageshadow="false"
     inkscape:window-width="1920"
     inkscape:window-height="1043"
     inkscape:window-x="1920"
     inkscape:window-y="0"
     width="400px"
     height="300px"
     inkscape:snap-nodes="true"
     inkscape:snap-bbox="true"
     gridtolerance="10000"
     inkscape:object-nodes="true"
     inkscape:snap-grids="true"
     showguides="true"
     inkscape:guide-bbox="true"
     inkscape:window-maximized="1"
     inkscape:bbox-paths="true"
     inkscape:snap-bbox-midpoints="true"
     inkscape:snap-global="true"
     inkscape:object-paths="true"
     inkscape:snap-intersection-paths="true"
     inkscape:snap-smooth-nodes="true"
     inkscape:pagecheckerboard="false"
     showborder="false"
     inkscape:document-rotation="0"
     fit-margin-top="0"
     fit-margin-left="0"
     fit-margin-right="0"
     fit-margin-bottom="0">
    <inkscape:grid
       spacingy="1"
       spacingx="1"
       id="grid5883"
       type="xygrid"
       enabled="true"
       visible="true"
       empspacing="4"
       snapvisiblegridlinesonly="true"
       originx="-319.99966"
       originy="-132" />
    <inkscape:grid
       type="xygrid"
       id="grid11592"
       empspacing="2"
       visible="true"
       enabled="false"
       spacingx="0.5"
       spacingy="0.5"
       color="#ff0000"
       opacity="0.1254902"
       empcolor="#ff0000"
       empopacity="0.25098039"
       snapvisiblegridlinesonly="true"
       originx="-319.99966"
       originy="-132" />
  </sodipodi:namedview>
  <defs
     id="defs3">
    <linearGradient
       inkscape:collect="always"
       id="linearGradient927">
      <stop
         style="stop-color:#ffffff;stop-opacity:1;"
         offset="0"
         id="stop923" />
      <stop
         id="stop933"
         offset="0.125"
         style="stop-color:#ffffff;stop-opacity:0.09803922" />
      <stop
         id="stop931"
         offset="0.92500001"
         style="stop-color:#ffffff;stop-opacity:0.09803922" />
      <stop
         style="stop-color:#ffffff;stop-opacity:0.49803922"
         offset="1"
         id="stop925" />
    </linearGradient>
    <clipPath
       clipPathUnits="userSpaceOnUse"
       id="clipPath994">
      <path
         style="color:#000000;display:inline;overflow:visible;visibility:visible;fill:#cdcdcd;fill-opacity:1;fill-rule:nonzero;stroke:none;stroke-width:2;stroke-miterlimit:4;stroke-dasharray:none;stroke-opacity:1;marker:none;enable-background:accumulate"
         d="m 335.73108,62 c -8.82418,0 -9.77365,0.90635 -9.7304,9.74838 v 12.25162 12.25162 c -0.0433,8.84203 0.90622,9.74838 9.7304,9.74838 h 16.53919 c 8.82418,0 9.7304,-0.90625 9.7304,-9.74838 v -12.25162 -12.25162 c 0,-8.84213 -0.90622,-9.74838 -9.7304,-9.74838 z"
         id="path996"
         inkscape:connector-curvature="0"
         sodipodi:nodetypes="scccssscsss" />
    </clipPath>
    <clipPath
       clipPathUnits="userSpaceOnUse"
       id="clipPath971">
      <path
         style="color:#000000;display:inline;overflow:visible;visibility:visible;opacity:1;fill:#46a926;fill-opacity:1;fill-rule:nonzero;stroke:none;stroke-width:2;stroke-miterlimit:4;stroke-dasharray:none;stroke-opacity:1;marker:none;enable-background:accumulate"
         d="m 327.8652,189 c -4.41209,0 -4.88682,0.45318 -4.8652,4.87419 v 6.12581 6.12581 c -0.0217,4.42101 0.45311,4.87419 4.8652,4.87419 h 8.2696 c 4.41209,0 4.8652,-0.45312 4.8652,-4.87419 v -6.12581 -6.12581 c 0,-4.42106 -0.45312,-4.87419 -4.86521,-4.87419 z"
         id="path973"
         inkscape:connector-curvature="0"
         sodipodi:nodetypes="scccssscsss" />
    </clipPath>
    <clipPath
       clipPathUnits="userSpaceOnUse"
       id="clipPath983">
      <path
         sodipodi:nodetypes="scccssscsss"
         inkscape:connector-curvature="0"
         id="path985"
         d="m 325.09646,237 c -2.80769,0 -3.10979,0.28839 -3.09603,3.10176 v 3.89824 3.89824 c -0.0138,2.81337 0.28834,3.10176 3.09603,3.10176 h 5.8075 c 2.8077,0 3.09604,-0.28835 3.09604,-3.10176 v -3.89824 -3.89824 c 0,-2.8134 -0.28835,-3.10176 -3.09604,-3.10176 z"
         style="color:#000000;display:inline;overflow:visible;visibility:visible;opacity:1;fill:#46a926;fill-opacity:1;fill-rule:nonzero;stroke:none;stroke-width:2;stroke-miterlimit:4;stroke-dasharray:none;stroke-opacity:1;marker:none;enable-background:accumulate" />
    </clipPath>
    <linearGradient
       inkscape:collect="always"
       xlink:href="#linearGradient927"
       id="linearGradient1004-8"
       x1="344"
       y1="62"
       x2="344"
       y2="106"
       gradientUnits="userSpaceOnUse" />
    <clipPath
       clipPathUnits="userSpaceOnUse"
       id="clipPath994-1">
      <path
         style="color:#000000;display:inline;overflow:visible;visibility:visible;fill:#cdcdcd;fill-opacity:1;fill-rule:nonzero;stroke:none;stroke-width:2;stroke-miterlimit:4;stroke-dasharray:none;stroke-opacity:1;marker:none;enable-background:accumulate"
         d="m 335.73108,62 c -8.82418,0 -9.77365,0.90635 -9.7304,9.74838 v 12.25162 12.25162 c -0.0433,8.84203 0.90622,9.74838 9.7304,9.74838 h 16.53919 c 8.82418,0 9.7304,-0.90625 9.7304,-9.74838 v -12.25162 -12.25162 c 0,-8.84213 -0.90622,-9.74838 -9.7304,-9.74838 z"
         id="path996-8"
         inkscape:connector-curvature="0"
         sodipodi:nodetypes="scccssscsss" />
    </clipPath>
    <linearGradient
       inkscape:collect="always"
       xlink:href="#linearGradient876"
       id="linearGradient3257"
       x1="330.0751"
       y1="133.5"
       x2="341.92554"
       y2="162.5"
       gradientUnits="userSpaceOnUse" />
    <linearGradient
       inkscape:collect="always"
       id="linearGradient876">
      <stop
         style="stop-color:#b3b3b3;stop-opacity:1"
         offset="0"
         id="stop872" />
      <stop
         style="stop-color:#d9d9d9;stop-opacity:1"
         offset="1"
         id="stop874" />
    </linearGradient>
    <linearGradient
       inkscape:collect="always"
       id="linearGradient1392">
      <stop
         style="stop-color:#e6e6e6;stop-opacity:1;"
         offset="0"
         id="stop1388" />
      <stop
         style="stop-color:#f2f2f2;stop-opacity:1"
         offset="1"
         id="stop1390" />
    </linearGradient>
    <clipPath
       clipPathUnits="userSpaceOnUse"
       id="clipPath999">
      <path
         inkscape:connector-curvature="0"
         style="color:#000000;display:inline;overflow:visible;visibility:visible;opacity:1;fill:#5d5d5d;fill-opacity:1;fill-rule:nonzero;stroke:none;stroke-width:3.826;stroke-linecap:butt;stroke-linejoin:round;stroke-miterlimit:4;stroke-dasharray:none;stroke-dashoffset:0;stroke-opacity:1;marker:none;enable-background:accumulate"
         d="m 152,68 c -48.60106,0 -88,39.39894 -88,88 0,48.60106 39.39894,88 88,88 48.60106,0 88,-39.39894 88,-88 0,-48.60106 -39.39894,-88 -88,-88 z"
         id="path1001"
         sodipodi:nodetypes="sssss" />
    </clipPath>
    <linearGradient
       inkscape:collect="always"
       xlink:href="#linearGradient1392"
       id="linearGradient2533"
       gradientUnits="userSpaceOnUse"
       gradientTransform="rotate(90,152,156)"
       x1="77"
       y1="156"
       x2="227"
       y2="156" />
  </defs>
  <metadata
     id="metadata4">
    <rdf:RDF>
      <cc:Work
         rdf:about="">
        <dc:format>image/svg+xml</dc:format>
        <dc:type
           rdf:resource="http://purl.org/dc/dcmitype/StillImage" />
        <dc:creator>
          <cc:Agent>
            <dc:title>Sam Hewitt</dc:title>
          </cc:Agent>
        </dc:creator>
        <dc:source />
        <cc:license
           rdf:resource="http://creativecommons.org/licenses/by-sa/4.0/" />
        <dc:title>Suru Icon Theme Template</dc:title>
        <dc:subject>
          <rdf:Bag />
        </dc:subject>
        <dc:date />
        <dc:rights>
          <cc:Agent>
            <dc:title />
          </cc:Agent>
        </dc:rights>
        <dc:publisher>
          <cc:Agent>
            <dc:title />
          </cc:Agent>
        </dc:publisher>
        <dc:identifier />
        <dc:relation />
        <dc:language />
        <dc:coverage />
        <dc:description />
        <dc:contributor>
          <cc:Agent>
            <dc:title />
          </cc:Agent>
        </dc:contributor>
      </cc:Work>
      <cc:Work
         rdf:about="">
        <dc:format>image/svg+xml</dc:format>
        <dc:type
           rdf:resource="http://purl.org/dc/dcmitype/StillImage" />
      </cc:Work>
      <cc:License
         rdf:about="http://creativecommons.org/licenses/by-sa/4.0/">
        <cc:permits
           rdf:resource="http://creativecommons.org/ns#Reproduction" />
        <cc:permits
           rdf:resource="http://creativecommons.org/ns#Distribution" />
        <cc:requires
           rdf:resource="http://creativecommons.org/ns#Notice" />
        <cc:requires
           rdf:resource="http://creativecommons.org/ns#Attribution" />
        <cc:permits
           rdf:resource="http://creativecommons.org/ns#DerivativeWorks" />
        <cc:requires
           rdf:resource="http://creativecommons.org/ns#ShareAlike" />
      </cc:License>
    </rdf:RDF>
  </metadata>
  <g
     style="display:inline"
     inkscape:groupmode="layer"
     inkscape:label="Icon"
     id="layer1"
     transform="translate(-319.99966,-132)">
    <g
       style="display:inline"
       inkscape:label="Baseplate"
       id="layer7"
       inkscape:groupmode="layer" />
    <g
       inkscape:groupmode="layer"
       id="layer8"
       inkscape:label="Backgrounds"
       style="display:inline">
      <path
         style="color:#000000;font-style:normal;font-variant:normal;font-weight:normal;font-stretch:normal;font-size:medium;line-height:normal;font-family:sans-serif;font-variant-ligatures:normal;font-variant-position:normal;font-variant-caps:normal;font-variant-numeric:normal;font-variant-alternates:normal;font-feature-settings:normal;text-indent:0;text-align:start;text-decoration:none;text-decoration-line:none;text-decoration-style:solid;text-decoration-color:#000000;letter-spacing:normal;word-spacing:normal;text-transform:none;writing-mode:lr-tb;direction:ltr;text-orientation:mixed;dominant-baseline:auto;baseline-shift:baseline;text-anchor:start;white-space:normal;shape-padding:0;clip-rule:nonzero;display:inline;overflow:visible;visibility:visible;opacity:0.1;isolation:auto;mix-blend-mode:normal;color-interpolation:sRGB;color-interpolation-filters:linearRGB;solid-color:#000000;solid-opacity:1;vector-effect:none;fill:#000000;fill-opacity:1;fill-rule:nonzero;stroke:none;stroke-width:2;stroke-linecap:butt;stroke-linejoin:miter;stroke-miterlimit:4;stroke-dasharray:none;stroke-dashoffset:0;stroke-opacity:1;marker:none;color-rendering:auto;image-rendering:auto;shape-rendering:auto;text-rendering:auto;enable-background:accumulate"
         d="m 330.19336,134 c -1.42096,0 -2.54883,0.0308 -3.50586,0.19141 -0.95703,0.16064 -1.79146,0.4726 -2.41211,1.09179 -0.62065,0.61919 -0.93647,1.45612 -1.0957,2.41407 -0.15924,0.95795 -0.18666,2.08705 -0.17969,3.51171 v 7.79102 7.79688 c -0.007,1.42131 0.0207,2.5495 0.17969,3.50585 0.15923,0.95796 0.47505,1.79488 1.0957,2.41407 0.62065,0.61919 1.45508,0.93115 2.41211,1.09179 0.95703,0.16065 2.0849,0.19141 3.50586,0.19141 h 11.61523 c 1.42097,0 2.54669,-0.0307 3.50196,-0.19141 0.95527,-0.16075 1.78779,-0.47425 2.40625,-1.09375 0.61845,-0.6195 0.93134,-1.45363 1.09179,-2.41015 0.16046,-0.95653 0.19141,-2.08403 0.19141,-3.50781 v -7.79688 -7.79688 c 0,-1.42378 -0.031,-2.55128 -0.19141,-3.50781 -0.16045,-0.95653 -0.47334,-1.79065 -1.09179,-2.41015 -0.61846,-0.61951 -1.45098,-0.933 -2.40625,-1.09375 -0.95527,-0.16076 -2.08099,-0.19141 -3.50196,-0.19141 z"
         id="path999"
         inkscape:connector-curvature="0"
         sodipodi:nodetypes="scscccccscsscccscscscss" />
      <path
         style="color:#000000;display:inline;overflow:visible;visibility:visible;fill:url(#linearGradient3257);fill-opacity:1;fill-rule:nonzero;stroke:none;stroke-width:1;marker:none;enable-background:accumulate"
         d="m 330.07509,133.5 c -5.56175,0 -6.6037,0.58409 -6.57447,6.28227 v 8.21765 8.21781 c -0.0293,5.69818 1.01272,6.28227 6.57447,6.28227 h 11.85044 c 5.56037,0 6.57447,-0.58403 6.57447,-6.28227 v -8.21781 -8.21765 c 0,-5.69824 -1.0141,-6.28227 -6.57447,-6.28227 z"
         id="path964-7"
         inkscape:connector-curvature="0"
         sodipodi:nodetypes="scccssscsss" />
      <path
         style="color:#000000;display:inline;overflow:visible;visibility:visible;opacity:0.4;fill:none;fill-opacity:1;fill-rule:nonzero;stroke:#000000;stroke-width:1;stroke-miterlimit:4;stroke-dasharray:none;stroke-opacity:1;marker:none;enable-background:accumulate"
         d="m 330.07509,133.5 c -5.56175,0 -6.6037,0.58409 -6.57447,6.28227 v 8.21765 8.21781 c -0.0293,5.69818 1.01272,6.28227 6.57447,6.28227 h 11.85044 c 5.56037,0 6.57447,-0.58403 6.57447,-6.28227 v -8.21781 -8.21765 c 0,-5.69824 -1.0141,-6.28227 -6.57447,-6.28227 z"
         id="path958-1"
         inkscape:connector-curvature="0"
         sodipodi:nodetypes="scccssscsss" />
      <path
         transform="matrix(0.66664182,0,0,0.63636364,106.67522,94.545454)"
         sodipodi:nodetypes="scccssscsss"
         inkscape:connector-curvature="0"
         id="path990-8"
         d="m 335.73108,62 c -8.82418,0 -9.77365,0.90635 -9.7304,9.74838 v 12.25162 12.25162 c -0.0433,8.84203 0.90622,9.74838 9.7304,9.74838 h 16.53919 c 8.82418,0 9.7304,-0.90625 9.7304,-9.74838 v -12.25162 -12.25162 c 0,-8.84213 -0.90622,-9.74838 -9.7304,-9.74838 z"
         style="color:#000000;display:inline;overflow:visible;visibility:visible;opacity:0.7;fill:none;fill-opacity:1;fill-rule:nonzero;stroke:url(#linearGradient1004-8);stroke-width:3.07066;stroke-miterlimit:4;stroke-dasharray:none;stroke-opacity:1;marker:none;enable-background:accumulate"
         clip-path="url(#clipPath994-1)" />
    </g>
    <g
       inkscape:groupmode="layer"
       id="layer6"
       inkscape:label="Pictograms"
       style="display:inline">
      <circle
         style="color:#000000;display:inline;overflow:visible;visibility:visible;opacity:1;fill:#4d4d4d;fill-opacity:1;fill-rule:nonzero;stroke:none;stroke-width:0.478261;stroke-linecap:butt;stroke-linejoin:miter;stroke-miterlimit:4;stroke-dasharray:1.43478, 1.43478;stroke-dashoffset:0;stroke-opacity:1;marker:none;enable-background:accumulate"
         id="circle1535"
         cx="336.00018"
         cy="146.99998"
         r="11" />
      <g
         style="display:inline;stroke-width:7.89474;enable-background:new"
         transform="matrix(0.12666667,0,0,0.12666667,316.74684,127.24)"
         id="g1592">
        <path
           sodipodi:nodetypes="sssss"
           inkscape:connector-curvature="0"
           id="path1556"
           d="m 152,231 c -41.42135,0 -75,-33.57864 -75,-75 0,-41.42136 33.57865,-75 75,-75 41.42135,0 75,33.57864 75,75 0,41.42136 -33.57865,75 -75,75 z"
           style="display:inline;opacity:1;fill:url(#linearGradient2533);fill-opacity:1;stroke:none;stroke-width:126.316;stroke-linecap:round;stroke-linejoin:round;stroke-miterlimit:4;stroke-dasharray:none;stroke-dashoffset:0;stroke-opacity:1;enable-background:new" />
        <ellipse
           ry="32.000008"
           rx="32"
           cy="155.99965"
           cx="151.99992"
           id="ellipse1558"
           style="display:inline;opacity:0.05;fill:#000000;fill-opacity:1;stroke:none;stroke-width:126.316;stroke-linecap:round;stroke-linejoin:round;stroke-miterlimit:4;stroke-dasharray:none;stroke-dashoffset:0;stroke-opacity:1;enable-background:new" />
        <ellipse
           style="display:inline;opacity:1;fill:#ffffff;fill-opacity:1;stroke:none;stroke-width:126.316;stroke-linecap:round;stroke-linejoin:round;stroke-miterlimit:4;stroke-dasharray:none;stroke-dashoffset:0;stroke-opacity:1;enable-background:new"
           id="ellipse1560"
           cx="151.99992"
           cy="155.99965"
           rx="20"
           ry="20.000004" />
        <g
           style="opacity:0.1;fill:#000000;fill-opacity:1;stroke-width:7.89474"
           id="g1586">
          <circle
             style="opacity:1;fill:#000000;fill-opacity:1;stroke:none;stroke-width:126.316;stroke-linecap:round;stroke-linejoin:round;stroke-miterlimit:4;stroke-dasharray:none;stroke-dashoffset:0;stroke-opacity:1"
             id="circle1562"
             cx="53.63586"
             cy="185.09996"
             r="2"
             transform="rotate(-30)" />
          <circle
             r="2"
             cy="237.09996"
             cx="53.63586"
             id="circle1564"
             style="opacity:1;fill:#000000;fill-opacity:1;stroke:none;stroke-width:126.316;stroke-linecap:round;stroke-linejoin:round;stroke-miterlimit:4;stroke-dasharray:none;stroke-dashoffset:0;stroke-opacity:1"
             transform="rotate(-30)" />
          <circle
             r="2"
             cy="183.63586"
             cx="-59.099964"
             id="circle1566"
             style="opacity:1;fill:#000000;fill-opacity:1;stroke:none;stroke-width:126.316;stroke-linecap:round;stroke-linejoin:round;stroke-miterlimit:4;stroke-dasharray:none;stroke-dashoffset:0;stroke-opacity:1"
             transform="rotate(-60)" />
          <circle
             style="opacity:1;fill:#000000;fill-opacity:1;stroke:none;stroke-width:126.316;stroke-linecap:round;stroke-linejoin:round;stroke-miterlimit:4;stroke-dasharray:none;stroke-dashoffset:0;stroke-opacity:1"
             id="circle1568"
             cx="-59.099964"
             cy="235.63586"
             r="2"
             transform="rotate(-60)" />
          <circle
             style="opacity:1;fill:#000000;fill-opacity:1;stroke:none;stroke-width:126.316;stroke-linecap:round;stroke-linejoin:round;stroke-miterlimit:4;stroke-dasharray:none;stroke-dashoffset:0;stroke-opacity:1"
             id="circle1570"
             cx="-156"
             cy="126"
             r="2"
             transform="rotate(-90)" />
          <circle
             r="2"
             cy="178"
             cx="-156"
             id="circle1572"
             style="opacity:1;fill:#000000;fill-opacity:1;stroke:none;stroke-width:126.316;stroke-linecap:round;stroke-linejoin:round;stroke-miterlimit:4;stroke-dasharray:none;stroke-dashoffset:0;stroke-opacity:1"
             transform="rotate(-90)" />
          <circle
             r="2"
             cy="27.63586"
             cx="-211.09996"
             id="circle1574"
             style="opacity:1;fill:#000000;fill-opacity:1;stroke:none;stroke-width:126.316;stroke-linecap:round;stroke-linejoin:round;stroke-miterlimit:4;stroke-dasharray:none;stroke-dashoffset:0;stroke-opacity:1"
             transform="rotate(-120)" />
          <circle
             style="opacity:1;fill:#000000;fill-opacity:1;stroke:none;stroke-width:126.316;stroke-linecap:round;stroke-linejoin:round;stroke-miterlimit:4;stroke-dasharray:none;stroke-dashoffset:0;stroke-opacity:1"
             id="circle1576"
             cx="-211.09996"
             cy="79.635864"
             r="2"
             transform="rotate(-120)" />
          <circle
             transform="rotate(-150,152,156)"
             r="2"
             cy="130"
             cx="152"
             id="circle1578"
             style="display:inline;opacity:1;fill:#000000;fill-opacity:1;stroke:none;stroke-width:126.316;stroke-linecap:round;stroke-linejoin:round;stroke-miterlimit:4;stroke-dasharray:none;stroke-dashoffset:0;stroke-opacity:1;enable-background:new" />
          <circle
             transform="rotate(-150,152,156)"
             style="display:inline;opacity:1;fill:#000000;fill-opacity:1;stroke:none;stroke-width:126.316;stroke-linecap:round;stroke-linejoin:round;stroke-miterlimit:4;stroke-dasharray:none;stroke-dashoffset:0;stroke-opacity:1;enable-background:new"
             id="circle1580"
             cx="152"
             cy="182"
             r="2" />
          <circle
             r="2"
             cy="-182"
             cx="-152"
             id="circle1582"
             style="opacity:1;fill:#000000;fill-opacity:1;stroke:none;stroke-width:126.316;stroke-linecap:round;stroke-linejoin:round;stroke-miterlimit:4;stroke-dasharray:none;stroke-dashoffset:0;stroke-opacity:1"
             transform="scale(-1)" />
          <circle
             style="opacity:1;fill:#000000;fill-opacity:1;stroke:none;stroke-width:126.316;stroke-linecap:round;stroke-linejoin:round;stroke-miterlimit:4;stroke-dasharray:none;stroke-dashoffset:0;stroke-opacity:1"
             id="circle1584"
             cx="-152"
             cy="-130"
             r="2"
             transform="scale(-1)" />
        </g>
        <ellipse
           ry="16.000004"
           rx="16"
           cy="155.99965"
           cx="151.99992"
           id="ellipse1588"
           style="display:inline;opacity:0.1;fill:#000000;fill-opacity:1;stroke:none;stroke-width:126.316;stroke-linecap:round;stroke-linejoin:round;stroke-miterlimit:4;stroke-dasharray:none;stroke-dashoffset:0;stroke-opacity:1;enable-background:new" />
        <ellipse
           ry="4.000001"
           rx="4"
           cy="156.00012"
           cx="152.00037"
           id="ellipse1590"
           style="display:inline;opacity:1;fill:#888888;fill-opacity:1;stroke:none;stroke-width:126.316;stroke-linecap:round;stroke-linejoin:round;stroke-miterlimit:4;stroke-dasharray:none;stroke-dashoffset:0;stroke-opacity:1;enable-background:new" />
      </g>
      <path
         style="opacity:0.7;fill:#e95420;fill-opacity:1;stroke:none;stroke-width:0.25;stroke-linecap:round;stroke-linejoin:round;stroke-miterlimit:4;stroke-dasharray:none;stroke-opacity:1"
         d="m 333.89844,139.29102 a 8,8 0 0 0 -5.89844,7.70898 8,8 0 0 0 8,8 8,8 0 0 0 8,-8 8,8 0 0 0 -0.85156,-3.57422 l -0.88867,0.44531 a 7,7 0 0 1 0.74023,3.12891 7,7 0 0 1 -7,7 7,7 0 0 1 -7,-7 7,7 0 0 1 5.1582,-6.75195 z"
         id="path3306" />
      <g
         style="display:inline;opacity:0.4;fill:#000000;fill-opacity:1;stroke-width:7.61117;enable-background:new"
         transform="matrix(0.12411971,-0.04308758,0.04308758,0.12411971,286.79532,145.95914)"
         id="g1745">
        <path
           style="display:inline;opacity:1;fill:#000000;fill-opacity:1;stroke:none;stroke-width:121.779;stroke-linecap:round;stroke-linejoin:round;stroke-miterlimit:4;stroke-dasharray:none;stroke-dashoffset:0;stroke-opacity:1;enable-background:new"
           d="m 386.493,181.14214 c 0,0 -116.96477,32.70026 -123.42239,34.1909 -6.4576,1.49066 -12.90092,-2.53586 -14.39157,-8.99346 -1.49064,-6.4576 2.53588,-12.90094 8.99348,-14.39159 6.45762,-1.49063 128.82048,-10.80585 128.82048,-10.80585 z"
           id="path1741"
           inkscape:connector-curvature="0"
           sodipodi:nodetypes="csssc" />
        <circle
           style="display:inline;opacity:1;fill:#000000;fill-opacity:1;stroke:none;stroke-width:121.779;stroke-linecap:round;stroke-linejoin:round;stroke-miterlimit:4;stroke-dasharray:none;stroke-dashoffset:0;stroke-opacity:1;enable-background:new"
           id="circle1743"
           cx="265.24741"
           cy="191.08354"
           r="4" />
      </g>
      <g
         id="g1721"
         transform="matrix(0.13127024,-0.00551051,0.00551051,0.13127024,291.84825,134.15374)"
         style="display:inline;stroke-width:7.61117;enable-background:new">
        <path
           sodipodi:nodetypes="csssc"
           inkscape:connector-curvature="0"
           id="path1717"
           d="m 381.28455,144.11439 c 0,0 -104.44544,62.29913 -110.2837,65.43561 -5.83825,3.13649 -13.1137,0.94626 -16.25017,-4.89199 -3.13647,-5.83825 -0.94625,-13.11371 4.892,-16.25019 5.83827,-3.13646 121.64187,-44.29343 121.64187,-44.29343 z"
           style="display:inline;opacity:1;fill:#ffffff;fill-opacity:1;stroke:none;stroke-width:121.779;stroke-linecap:round;stroke-linejoin:round;stroke-miterlimit:4;stroke-dasharray:none;stroke-dashoffset:0;stroke-opacity:1;enable-background:new"
           inkscape:transform-center-x="-6.891158"
           inkscape:transform-center-y="-3.3061164" />
        <circle
           r="4"
           cy="198.68668"
           cx="264.92825"
           id="circle1719"
           style="display:inline;opacity:1;fill:#808080;fill-opacity:1;stroke:none;stroke-width:121.779;stroke-linecap:round;stroke-linejoin:round;stroke-miterlimit:4;stroke-dasharray:none;stroke-dashoffset:0;stroke-opacity:1;enable-background:new" />
      </g>
      <path
         sodipodi:nodetypes="scsss"
         id="path2-3-7-9"
         d="m 335.99966,140.9998 c 0,4.41844 -7.99983,11.0002 -7.99983,11.0002 0,0 -8.00017,-6.58176 -8.00017,-11.0002 0,-4.41815 3.5818,-7.9998 8.00017,-7.9998 4.41842,0 7.99983,3.58159 7.99983,7.9998 z"
         inkscape:connector-curvature="0"
         style="display:inline;opacity:0.2;fill:#000000;fill-opacity:1;stroke:none;stroke-width:0.0565;stroke-miterlimit:4;stroke-dasharray:none;stroke-opacity:1;enable-background:new" />
      <path
         sodipodi:nodetypes="scsss"
         id="path2-3-7"
         d="m 335.99983,139.9998 c 0,4.41844 -7.99983,11.0002 -7.99983,11.0002 0,0 -8.00017,-6.58176 -8.00017,-11.0002 0,-4.41815 3.5818,-7.9998 8.00017,-7.9998 4.41842,0 7.99983,3.58159 7.99983,7.9998 z"
         inkscape:connector-curvature="0"
         style="display:inline;fill:#e95420;fill-opacity:1;stroke:none;stroke-width:0.0565;stroke-miterlimit:4;stroke-dasharray:none;stroke-opacity:1;enable-background:new" />
      <g
         id="g2077">
        <circle
           class="cls-2"
           cx="323.47501"
           cy="139.91"
           r="1.675"
           id="circle8-3"
           style="fill:#ffffff;stroke-width:1" />
        <circle
           class="cls-2"
           cx="330.435"
           cy="136.23999"
           r="1.675"
           id="circle10-6"
           style="fill:#ffffff;stroke-width:1" />
        <path
           class="cls-2"
           d="m 327.25,144.21 a 4.04,4.04 0 0 1 -2.775,-2.125 2.415,2.415 0 0 1 -1.425,0.175 5.435,5.435 0 0 0 3.925,3.29 5.5,5.5 0 0 0 1.185,0.125 2.355,2.355 0 0 1 -0.5,-1.4 1.445,1.445 0 0 1 -0.41,-0.065 z"
           id="path12-7"
           style="fill:#ffffff;stroke-width:1" />
        <circle
           class="cls-2"
           cx="330.06"
           cy="144.22499"
           r="1.675"
           id="circle14-5"
           style="fill:#ffffff;stroke-width:1" />
        <path
           class="cls-2"
           d="m 332.385,143.615 a 5.5,5.5 0 0 0 0.275,-6.415 2.425,2.425 0 0 1 -0.94,1.1 4.11,4.11 0 0 1 0.39,2.775 4.04,4.04 0 0 1 -0.525,1.3 2.29,2.29 0 0 1 0.8,1.24 z"
           id="path16-3"
           style="fill:#ffffff;stroke-width:1" />
        <path
           class="cls-2"
           d="m 323.335,137.5 h 0.125 a 2.325,2.325 0 0 1 0.5,0.05 2.42,2.42 0 0 1 0.76,0.315 4.06,4.06 0 0 1 3.29,-1.76 3.21,3.21 0 0 1 0.05,-0.375 2.315,2.315 0 0 1 0.46,-0.975 5.5,5.5 0 0 0 -5.185,2.745 z"
           id="path18-5"
           style="fill:#ffffff;stroke-width:1" />
      </g>
    </g>
  </g>
</svg>
