<?xml version="1.0" encoding="UTF-8" standalone="no"?>
<svg
   inkscape:export-ydpi="96"
   inkscape:export-xdpi="96"
   width="22"
   height="22"
   id="svg11300"
   sodipodi:version="0.32"
   inkscape:version="1.1.2 (76b9e6a115, 2022-02-25)"
   sodipodi:docname="ubiquity-22x22.svg"
   inkscape:output_extension="org.inkscape.output.svg.inkscape"
   version="1.0"
   style="display:inline;enable-background:new"
   inkscape:export-filename="/home/stuart/Pictures/disk.png"
   xmlns:inkscape="http://www.inkscape.org/namespaces/inkscape"
   xmlns:sodipodi="http://sodipodi.sourceforge.net/DTD/sodipodi-0.dtd"
   xmlns:xlink="http://www.w3.org/1999/xlink"
   xmlns="http://www.w3.org/2000/svg"
   xmlns:svg="http://www.w3.org/2000/svg"
   xmlns:rdf="http://www.w3.org/1999/02/22-rdf-syntax-ns#"
   xmlns:cc="http://creativecommons.org/ns#"
   xmlns:dc="http://purl.org/dc/elements/1.1/">
  <title
     id="title3004">Suru Icon Theme Template</title>
  <sodipodi:namedview
     stroke="#ef2929"
     fill="#f57900"
     id="base"
     pagecolor="#ffffff"
     bordercolor="#000000"
     borderopacity="0.25490196"
     inkscape:pageopacity="0"
     inkscape:pageshadow="2"
     inkscape:zoom="8"
     inkscape:cx="16.4375"
     inkscape:cy="-0.25"
     inkscape:current-layer="layer7"
     showgrid="false"
     inkscape:grid-bbox="true"
     inkscape:document-units="px"
     inkscape:showpageshadow="false"
     inkscape:window-width="1920"
     inkscape:window-height="1043"
     inkscape:window-x="1920"
     inkscape:window-y="0"
     width="400px"
     height="300px"
     inkscape:snap-nodes="true"
     inkscape:snap-bbox="true"
     gridtolerance="10000"
     inkscape:object-nodes="true"
     inkscape:snap-grids="true"
     showguides="true"
     inkscape:guide-bbox="true"
     inkscape:window-maximized="1"
     inkscape:bbox-paths="true"
     inkscape:snap-bbox-midpoints="true"
     inkscape:snap-global="true"
     inkscape:object-paths="true"
     inkscape:snap-intersection-paths="true"
     inkscape:snap-smooth-nodes="true"
     inkscape:pagecheckerboard="false"
     showborder="false"
     inkscape:document-rotation="0"
     fit-margin-top="0"
     fit-margin-left="0"
     fit-margin-right="0"
     fit-margin-bottom="0">
    <inkscape:grid
       spacingy="1"
       spacingx="1"
       id="grid5883"
       type="xygrid"
       enabled="true"
       visible="true"
       empspacing="4"
       snapvisiblegridlinesonly="true"
       originx="-359.99987"
       originy="-188" />
    <inkscape:grid
       type="xygrid"
       id="grid11592"
       empspacing="2"
       visible="true"
       enabled="false"
       spacingx="0.5"
       spacingy="0.5"
       color="#ff0000"
       opacity="0.1254902"
       empcolor="#ff0000"
       empopacity="0.25098039"
       snapvisiblegridlinesonly="true"
       originx="-359.99987"
       originy="-188" />
  </sodipodi:namedview>
  <defs
     id="defs3">
    <linearGradient
       inkscape:collect="always"
       id="linearGradient927">
      <stop
         style="stop-color:#ffffff;stop-opacity:1;"
         offset="0"
         id="stop923" />
      <stop
         id="stop933"
         offset="0.125"
         style="stop-color:#ffffff;stop-opacity:0.09803922" />
      <stop
         id="stop931"
         offset="0.92500001"
         style="stop-color:#ffffff;stop-opacity:0.09803922" />
      <stop
         style="stop-color:#ffffff;stop-opacity:0.49803922"
         offset="1"
         id="stop925" />
    </linearGradient>
    <clipPath
       clipPathUnits="userSpaceOnUse"
       id="clipPath994">
      <path
         style="color:#000000;display:inline;overflow:visible;visibility:visible;fill:#cdcdcd;fill-opacity:1;fill-rule:nonzero;stroke:none;stroke-width:2;stroke-miterlimit:4;stroke-dasharray:none;stroke-opacity:1;marker:none;enable-background:accumulate"
         d="m 335.73108,62 c -8.82418,0 -9.77365,0.90635 -9.7304,9.74838 v 12.25162 12.25162 c -0.0433,8.84203 0.90622,9.74838 9.7304,9.74838 h 16.53919 c 8.82418,0 9.7304,-0.90625 9.7304,-9.74838 v -12.25162 -12.25162 c 0,-8.84213 -0.90622,-9.74838 -9.7304,-9.74838 z"
         id="path996"
         inkscape:connector-curvature="0"
         sodipodi:nodetypes="scccssscsss" />
    </clipPath>
    <clipPath
       clipPathUnits="userSpaceOnUse"
       id="clipPath971">
      <path
         style="color:#000000;display:inline;overflow:visible;visibility:visible;opacity:1;fill:#46a926;fill-opacity:1;fill-rule:nonzero;stroke:none;stroke-width:2;stroke-miterlimit:4;stroke-dasharray:none;stroke-opacity:1;marker:none;enable-background:accumulate"
         d="m 327.8652,189 c -4.41209,0 -4.88682,0.45318 -4.8652,4.87419 v 6.12581 6.12581 c -0.0217,4.42101 0.45311,4.87419 4.8652,4.87419 h 8.2696 c 4.41209,0 4.8652,-0.45312 4.8652,-4.87419 v -6.12581 -6.12581 c 0,-4.42106 -0.45312,-4.87419 -4.86521,-4.87419 z"
         id="path973"
         inkscape:connector-curvature="0"
         sodipodi:nodetypes="scccssscsss" />
    </clipPath>
    <clipPath
       clipPathUnits="userSpaceOnUse"
       id="clipPath983">
      <path
         sodipodi:nodetypes="scccssscsss"
         inkscape:connector-curvature="0"
         id="path985"
         d="m 325.09646,237 c -2.80769,0 -3.10979,0.28839 -3.09603,3.10176 v 3.89824 3.89824 c -0.0138,2.81337 0.28834,3.10176 3.09603,3.10176 h 5.8075 c 2.8077,0 3.09604,-0.28835 3.09604,-3.10176 v -3.89824 -3.89824 c 0,-2.8134 -0.28835,-3.10176 -3.09604,-3.10176 z"
         style="color:#000000;display:inline;overflow:visible;visibility:visible;opacity:1;fill:#46a926;fill-opacity:1;fill-rule:nonzero;stroke:none;stroke-width:2;stroke-miterlimit:4;stroke-dasharray:none;stroke-opacity:1;marker:none;enable-background:accumulate" />
    </clipPath>
    <clipPath
       clipPathUnits="userSpaceOnUse"
       id="clipPath994-1">
      <path
         style="color:#000000;display:inline;overflow:visible;visibility:visible;fill:#cdcdcd;fill-opacity:1;fill-rule:nonzero;stroke:none;stroke-width:2;stroke-miterlimit:4;stroke-dasharray:none;stroke-opacity:1;marker:none;enable-background:accumulate"
         d="m 335.73108,62 c -8.82418,0 -9.77365,0.90635 -9.7304,9.74838 v 12.25162 12.25162 c -0.0433,8.84203 0.90622,9.74838 9.7304,9.74838 h 16.53919 c 8.82418,0 9.7304,-0.90625 9.7304,-9.74838 v -12.25162 -12.25162 c 0,-8.84213 -0.90622,-9.74838 -9.7304,-9.74838 z"
         id="path996-8"
         inkscape:connector-curvature="0"
         sodipodi:nodetypes="scccssscsss" />
    </clipPath>
    <linearGradient
       inkscape:collect="always"
       id="linearGradient876">
      <stop
         style="stop-color:#b3b3b3;stop-opacity:1"
         offset="0"
         id="stop872" />
      <stop
         style="stop-color:#d9d9d9;stop-opacity:1"
         offset="1"
         id="stop874" />
    </linearGradient>
    <linearGradient
       inkscape:collect="always"
       id="linearGradient1392">
      <stop
         style="stop-color:#e6e6e6;stop-opacity:1;"
         offset="0"
         id="stop1388" />
      <stop
         style="stop-color:#f2f2f2;stop-opacity:1"
         offset="1"
         id="stop1390" />
    </linearGradient>
    <clipPath
       clipPathUnits="userSpaceOnUse"
       id="clipPath999">
      <path
         inkscape:connector-curvature="0"
         style="color:#000000;display:inline;overflow:visible;visibility:visible;opacity:1;fill:#5d5d5d;fill-opacity:1;fill-rule:nonzero;stroke:none;stroke-width:3.826;stroke-linecap:butt;stroke-linejoin:round;stroke-miterlimit:4;stroke-dasharray:none;stroke-dashoffset:0;stroke-opacity:1;marker:none;enable-background:accumulate"
         d="m 152,68 c -48.60106,0 -88,39.39894 -88,88 0,48.60106 39.39894,88 88,88 48.60106,0 88,-39.39894 88,-88 0,-48.60106 -39.39894,-88 -88,-88 z"
         id="path1001"
         sodipodi:nodetypes="sssss" />
    </clipPath>
    <linearGradient
       inkscape:collect="always"
       xlink:href="#linearGradient1392"
       id="linearGradient1178"
       gradientUnits="userSpaceOnUse"
       gradientTransform="rotate(90,152,156)"
       x1="77"
       y1="156"
       x2="227"
       y2="156" />
    <linearGradient
       inkscape:collect="always"
       xlink:href="#linearGradient927"
       id="linearGradient1976"
       gradientUnits="userSpaceOnUse"
       x1="332"
       y1="189"
       x2="332"
       y2="211" />
    <linearGradient
       inkscape:collect="always"
       xlink:href="#linearGradient876"
       id="linearGradient1978"
       gradientUnits="userSpaceOnUse"
       gradientTransform="matrix(0,-0.05921519,0.05978336,0,353.27068,214.63635)"
       x1="441.37936"
       y1="240.30258"
       x2="52.965523"
       y2="386.30795" />
  </defs>
  <metadata
     id="metadata4">
    <rdf:RDF>
      <cc:Work
         rdf:about="">
        <dc:format>image/svg+xml</dc:format>
        <dc:type
           rdf:resource="http://purl.org/dc/dcmitype/StillImage" />
        <dc:creator>
          <cc:Agent>
            <dc:title>Sam Hewitt</dc:title>
          </cc:Agent>
        </dc:creator>
        <dc:source />
        <cc:license
           rdf:resource="http://creativecommons.org/licenses/by-sa/4.0/" />
        <dc:title>Suru Icon Theme Template</dc:title>
        <dc:subject>
          <rdf:Bag />
        </dc:subject>
        <dc:date />
        <dc:rights>
          <cc:Agent>
            <dc:title />
          </cc:Agent>
        </dc:rights>
        <dc:publisher>
          <cc:Agent>
            <dc:title />
          </cc:Agent>
        </dc:publisher>
        <dc:identifier />
        <dc:relation />
        <dc:language />
        <dc:coverage />
        <dc:description />
        <dc:contributor>
          <cc:Agent>
            <dc:title />
          </cc:Agent>
        </dc:contributor>
      </cc:Work>
      <cc:Work
         rdf:about="">
        <dc:format>image/svg+xml</dc:format>
        <dc:type
           rdf:resource="http://purl.org/dc/dcmitype/StillImage" />
      </cc:Work>
      <cc:License
         rdf:about="http://creativecommons.org/licenses/by-sa/4.0/">
        <cc:permits
           rdf:resource="http://creativecommons.org/ns#Reproduction" />
        <cc:permits
           rdf:resource="http://creativecommons.org/ns#Distribution" />
        <cc:requires
           rdf:resource="http://creativecommons.org/ns#Notice" />
        <cc:requires
           rdf:resource="http://creativecommons.org/ns#Attribution" />
        <cc:permits
           rdf:resource="http://creativecommons.org/ns#DerivativeWorks" />
        <cc:requires
           rdf:resource="http://creativecommons.org/ns#ShareAlike" />
      </cc:License>
    </rdf:RDF>
  </metadata>
  <g
     style="display:inline"
     inkscape:groupmode="layer"
     inkscape:label="Icon"
     id="layer1"
     transform="translate(-359.99987,-188)">
    <g
       style="display:inline"
       inkscape:label="Baseplate"
       id="layer7"
       inkscape:groupmode="layer" />
    <g
       inkscape:groupmode="layer"
       id="layer8"
       inkscape:label="Backgrounds"
       style="display:inline">
      <path
         style="color:#000000;font-style:normal;font-variant:normal;font-weight:normal;font-stretch:normal;font-size:medium;line-height:normal;font-family:sans-serif;font-variant-ligatures:normal;font-variant-position:normal;font-variant-caps:normal;font-variant-numeric:normal;font-variant-alternates:normal;font-feature-settings:normal;text-indent:0;text-align:start;text-decoration:none;text-decoration-line:none;text-decoration-style:solid;text-decoration-color:#000000;letter-spacing:normal;word-spacing:normal;text-transform:none;writing-mode:lr-tb;direction:ltr;text-orientation:mixed;dominant-baseline:auto;baseline-shift:baseline;text-anchor:start;white-space:normal;shape-padding:0;clip-rule:nonzero;display:inline;overflow:visible;visibility:visible;opacity:0.1;isolation:auto;mix-blend-mode:normal;color-interpolation:sRGB;color-interpolation-filters:linearRGB;solid-color:#000000;solid-opacity:1;vector-effect:none;fill:#000000;fill-opacity:1;fill-rule:nonzero;stroke:none;stroke-width:2;stroke-linecap:butt;stroke-linejoin:miter;stroke-miterlimit:4;stroke-dasharray:none;stroke-dashoffset:0;stroke-opacity:1;marker:none;color-rendering:auto;image-rendering:auto;shape-rendering:auto;text-rendering:auto;enable-background:accumulate"
         d="m 367.86601,189 c -1.12014,0 -2.01524,0.0241 -2.79101,0.1543 -0.77577,0.13022 -1.48014,0.38763 -2.00977,0.91601 -0.52962,0.52838 -0.79079,1.23687 -0.91992,2.01367 -0.12912,0.77681 -0.15002,1.67169 -0.14453,2.79493 v 6.12109 3.1245 c -0.005,1.12104 0.0156,2.01529 0.14453,2.79102 0.12912,0.77681 0.39029,1.48529 0.91992,2.01367 0.52964,0.52838 1.234,0.78579 2.00977,0.91601 0.77577,0.13022 1.67087,0.1543 2.79101,0.1543 h 6.26954 c 1.12013,0 2.01264,-0.024 2.78711,-0.1543 0.77446,-0.13033 1.48001,-0.38927 2.00781,-0.91797 0.5278,-0.52869 0.78594,-1.23438 0.91601,-2.00976 0.13007,-0.77539 0.1543,-1.67062 0.1543,-2.79297 v -3.1245 -6.125 c 0,-1.12235 -0.0242,-2.01758 -0.1543,-2.79297 -0.13007,-0.77538 -0.38821,-1.48107 -0.91601,-2.00976 -0.5278,-0.5287 -1.23334,-0.78764 -2.00781,-0.91797 -0.77448,-0.13033 -1.66697,-0.1543 -2.78711,-0.1543 z"
         id="path1968"
         inkscape:connector-curvature="0"
         sodipodi:nodetypes="sccccccccssscccscscccss" />
      <path
         sodipodi:nodetypes="scccssscsss"
         inkscape:connector-curvature="0"
         id="path1970"
         d="m 367.63678,188.49999 c -4.65703,0 -5.15812,0.47378 -5.1353,5.09575 v 6.40425 4.40426 c -0.0229,4.62196 0.47827,5.09574 5.1353,5.09574 h 6.72869 c 4.65703,0 5.1353,-0.47372 5.1353,-5.09574 v -4.40426 -6.40425 c 0,-4.62202 -0.47828,-5.09575 -5.13531,-5.09575 z"
         style="color:#000000;display:inline;overflow:visible;visibility:visible;fill:url(#linearGradient1978);fill-opacity:1;fill-rule:nonzero;stroke:none;stroke-width:1;marker:none;enable-background:accumulate" />
      <path
         sodipodi:nodetypes="scccssscsss"
         inkscape:connector-curvature="0"
         id="path1972"
         d="m 327.8652,189 c -4.41209,0 -4.88682,0.45318 -4.8652,4.87419 v 6.12581 4.12581 c -0.0217,4.42101 0.45311,4.87419 4.8652,4.87419 h 6.2696 c 4.41209,0 4.8652,-0.45312 4.8652,-4.87419 v -4.12581 -6.12581 c 0,-4.42106 -0.45312,-4.87419 -4.86521,-4.87419 z"
         style="color:#000000;display:inline;overflow:visible;visibility:visible;opacity:0.7;fill:none;fill-opacity:1;fill-rule:nonzero;stroke:url(#linearGradient1976);stroke-width:2;stroke-miterlimit:4;stroke-dasharray:none;stroke-opacity:1;marker:none;enable-background:accumulate"
         clip-path="url(#clipPath971)"
         transform="translate(40.000783)" />
      <path
         style="color:#000000;display:inline;overflow:visible;visibility:visible;opacity:0.4;fill:none;fill-opacity:1;fill-rule:nonzero;stroke:#000000;stroke-width:0.976529;stroke-miterlimit:4;stroke-dasharray:none;stroke-opacity:1;marker:none;enable-background:accumulate"
         d="m 374.50927,209.51179 c 4.23214,0 5.02499,-0.46371 5.00275,-4.98757 v -4.5241 -6.52423 c 0.0222,-4.52386 -0.77061,-4.98757 -5.00275,-4.98757 h -7.01743 c -4.23108,0 -5.00275,0.46366 -5.00275,4.98757 v 6.52423 4.5241 c 0,4.52391 0.77167,4.98757 5.00275,4.98757 z"
         id="path1974"
         inkscape:connector-curvature="0"
         sodipodi:nodetypes="scccssscsss" />
    </g>
    <g
       inkscape:groupmode="layer"
       id="layer6"
       inkscape:label="Pictograms"
       style="display:inline">
      <circle
         r="7"
         cy="198"
         cx="371.00018"
         id="circle1106"
         style="color:#000000;display:inline;overflow:visible;visibility:visible;opacity:1;fill:#4d4d4d;fill-opacity:1;fill-rule:nonzero;stroke:none;stroke-width:0.347826;stroke-linecap:butt;stroke-linejoin:miter;stroke-miterlimit:4;stroke-dasharray:1.04348, 1.04348;stroke-dashoffset:0;stroke-opacity:1;marker:none;enable-background:accumulate" />
      <g
         id="g1144"
         transform="matrix(0.08,0,0,0.08,358.84017,185.52001)"
         style="display:inline;stroke-width:12.5;enable-background:new">
        <path
           style="display:inline;opacity:1;fill:url(#linearGradient1178);fill-opacity:1;stroke:none;stroke-width:200;stroke-linecap:round;stroke-linejoin:round;stroke-miterlimit:4;stroke-dasharray:none;stroke-dashoffset:0;stroke-opacity:1;enable-background:new"
           d="m 152,231 c -41.42135,0 -75,-33.57864 -75,-75 0,-41.42136 33.57865,-75 75,-75 41.42135,0 75,33.57864 75,75 0,41.42136 -33.57865,75 -75,75 z"
           id="path1108"
           inkscape:connector-curvature="0"
           sodipodi:nodetypes="sssss" />
        <ellipse
           style="display:inline;opacity:0.05;fill:#000000;fill-opacity:1;stroke:none;stroke-width:200;stroke-linecap:round;stroke-linejoin:round;stroke-miterlimit:4;stroke-dasharray:none;stroke-dashoffset:0;stroke-opacity:1;enable-background:new"
           id="ellipse1110"
           cx="151.99992"
           cy="155.99965"
           rx="32"
           ry="32.000008" />
        <ellipse
           ry="20.000004"
           rx="20"
           cy="155.99965"
           cx="151.99992"
           id="ellipse1112"
           style="display:inline;opacity:1;fill:#ffffff;fill-opacity:1;stroke:none;stroke-width:200;stroke-linecap:round;stroke-linejoin:round;stroke-miterlimit:4;stroke-dasharray:none;stroke-dashoffset:0;stroke-opacity:1;enable-background:new" />
        <g
           id="g1138"
           style="opacity:0.1;fill:#000000;fill-opacity:1;stroke-width:12.5">
          <circle
             transform="rotate(-30)"
             r="2"
             cy="185.09996"
             cx="53.63586"
             id="circle1114"
             style="opacity:1;fill:#000000;fill-opacity:1;stroke:none;stroke-width:200;stroke-linecap:round;stroke-linejoin:round;stroke-miterlimit:4;stroke-dasharray:none;stroke-dashoffset:0;stroke-opacity:1" />
          <circle
             transform="rotate(-30)"
             style="opacity:1;fill:#000000;fill-opacity:1;stroke:none;stroke-width:200;stroke-linecap:round;stroke-linejoin:round;stroke-miterlimit:4;stroke-dasharray:none;stroke-dashoffset:0;stroke-opacity:1"
             id="circle1116"
             cx="53.63586"
             cy="237.09996"
             r="2" />
          <circle
             transform="rotate(-60)"
             style="opacity:1;fill:#000000;fill-opacity:1;stroke:none;stroke-width:200;stroke-linecap:round;stroke-linejoin:round;stroke-miterlimit:4;stroke-dasharray:none;stroke-dashoffset:0;stroke-opacity:1"
             id="circle1118"
             cx="-59.099964"
             cy="183.63586"
             r="2" />
          <circle
             transform="rotate(-60)"
             r="2"
             cy="235.63586"
             cx="-59.099964"
             id="circle1120"
             style="opacity:1;fill:#000000;fill-opacity:1;stroke:none;stroke-width:200;stroke-linecap:round;stroke-linejoin:round;stroke-miterlimit:4;stroke-dasharray:none;stroke-dashoffset:0;stroke-opacity:1" />
          <circle
             transform="rotate(-90)"
             r="2"
             cy="126"
             cx="-156"
             id="circle1122"
             style="opacity:1;fill:#000000;fill-opacity:1;stroke:none;stroke-width:200;stroke-linecap:round;stroke-linejoin:round;stroke-miterlimit:4;stroke-dasharray:none;stroke-dashoffset:0;stroke-opacity:1" />
          <circle
             transform="rotate(-90)"
             style="opacity:1;fill:#000000;fill-opacity:1;stroke:none;stroke-width:200;stroke-linecap:round;stroke-linejoin:round;stroke-miterlimit:4;stroke-dasharray:none;stroke-dashoffset:0;stroke-opacity:1"
             id="circle1124"
             cx="-156"
             cy="178"
             r="2" />
          <circle
             transform="rotate(-120)"
             style="opacity:1;fill:#000000;fill-opacity:1;stroke:none;stroke-width:200;stroke-linecap:round;stroke-linejoin:round;stroke-miterlimit:4;stroke-dasharray:none;stroke-dashoffset:0;stroke-opacity:1"
             id="circle1126"
             cx="-211.09996"
             cy="27.63586"
             r="2" />
          <circle
             transform="rotate(-120)"
             r="2"
             cy="79.635864"
             cx="-211.09996"
             id="circle1128"
             style="opacity:1;fill:#000000;fill-opacity:1;stroke:none;stroke-width:200;stroke-linecap:round;stroke-linejoin:round;stroke-miterlimit:4;stroke-dasharray:none;stroke-dashoffset:0;stroke-opacity:1" />
          <circle
             style="display:inline;opacity:1;fill:#000000;fill-opacity:1;stroke:none;stroke-width:200;stroke-linecap:round;stroke-linejoin:round;stroke-miterlimit:4;stroke-dasharray:none;stroke-dashoffset:0;stroke-opacity:1;enable-background:new"
             id="circle1130"
             cx="152"
             cy="130"
             r="2"
             transform="rotate(-150,152,156)" />
          <circle
             r="2"
             cy="182"
             cx="152"
             id="circle1132"
             style="display:inline;opacity:1;fill:#000000;fill-opacity:1;stroke:none;stroke-width:200;stroke-linecap:round;stroke-linejoin:round;stroke-miterlimit:4;stroke-dasharray:none;stroke-dashoffset:0;stroke-opacity:1;enable-background:new"
             transform="rotate(-150,152,156)" />
          <circle
             transform="scale(-1)"
             style="opacity:1;fill:#000000;fill-opacity:1;stroke:none;stroke-width:200;stroke-linecap:round;stroke-linejoin:round;stroke-miterlimit:4;stroke-dasharray:none;stroke-dashoffset:0;stroke-opacity:1"
             id="circle1134"
             cx="-152"
             cy="-182"
             r="2" />
          <circle
             transform="scale(-1)"
             r="2"
             cy="-130"
             cx="-152"
             id="circle1136"
             style="opacity:1;fill:#000000;fill-opacity:1;stroke:none;stroke-width:200;stroke-linecap:round;stroke-linejoin:round;stroke-miterlimit:4;stroke-dasharray:none;stroke-dashoffset:0;stroke-opacity:1" />
        </g>
        <ellipse
           style="display:inline;opacity:0.1;fill:#000000;fill-opacity:1;stroke:none;stroke-width:200;stroke-linecap:round;stroke-linejoin:round;stroke-miterlimit:4;stroke-dasharray:none;stroke-dashoffset:0;stroke-opacity:1;enable-background:new"
           id="ellipse1140"
           cx="151.99992"
           cy="155.99965"
           rx="16"
           ry="16.000004" />
        <ellipse
           style="display:inline;opacity:1;fill:#888888;fill-opacity:1;stroke:none;stroke-width:199.999;stroke-linecap:round;stroke-linejoin:round;stroke-miterlimit:4;stroke-dasharray:none;stroke-dashoffset:0;stroke-opacity:1;enable-background:new"
           id="ellipse1142"
           cx="152.00037"
           cy="156.00012"
           rx="4"
           ry="4.000001" />
      </g>
      <path
         style="opacity:0.7;fill:#e95420;fill-opacity:1;stroke:none;stroke-width:0.25;stroke-linecap:round;stroke-linejoin:round;stroke-miterlimit:4;stroke-dasharray:none;stroke-opacity:1"
         d="m 370.29362,193.06641 a 5,5 0 0 0 -4.29362,4.94466 5,5 0 0 0 5,5 5,5 0 0 0 5,-5 5,5 0 0 0 -0.53385,-2.23308 l -0.74057,0.37109 a 4.1666666,4.1666666 0 0 1 0.44109,1.86199 4.1666666,4.1666666 0 0 1 -4.16667,4.16666 4.1666666,4.1666666 0 0 1 -4.16667,-4.16666 4.1666666,4.1666666 0 0 1 3.57748,-4.12109 z"
         id="path1146" />
      <g
         id="g1152"
         transform="matrix(0.06951839,-0.02192426,0.02192426,0.06951839,343.2644,199.45463)"
         style="display:inline;opacity:0.4;fill:#000000;fill-opacity:1;stroke-width:13.7187;enable-background:new">
        <path
           sodipodi:nodetypes="csssc"
           inkscape:connector-curvature="0"
           id="path1148"
           d="m 392.7526,156.91646 c 0,0 -117.99478,44.0399 -124.39639,45.7552 -6.40159,1.71532 -12.98163,-2.08367 -14.69694,-8.48526 -1.7153,-6.40159 2.08369,-12.98164 8.48528,-14.69695 6.40161,-1.71529 130.60805,-22.57299 130.60805,-22.57299 z"
           style="display:inline;opacity:1;fill:#000000;fill-opacity:1;stroke:none;stroke-width:219.498;stroke-linecap:round;stroke-linejoin:round;stroke-miterlimit:4;stroke-dasharray:none;stroke-dashoffset:0;stroke-opacity:1;enable-background:new" />
        <circle
           r="4"
           cy="191.08354"
           cx="265.24741"
           id="circle1150"
           style="display:inline;opacity:1;fill:#000000;fill-opacity:1;stroke:none;stroke-width:219.498;stroke-linecap:round;stroke-linejoin:round;stroke-miterlimit:4;stroke-dasharray:none;stroke-dashoffset:0;stroke-opacity:1;enable-background:new" />
      </g>
      <g
         style="display:inline;stroke-width:13.7187;enable-background:new"
         transform="matrix(0.06938124,-0.02235447,0.02235447,0.06938124,343.20813,198.73254)"
         id="g1158"
         inkscape:transform-center-x="-3.6264028"
         inkscape:transform-center-y="-2.153586">
        <path
           style="display:inline;opacity:1;fill:#ffffff;fill-opacity:1;stroke:none;stroke-width:219.498;stroke-linecap:round;stroke-linejoin:round;stroke-miterlimit:4;stroke-dasharray:none;stroke-dashoffset:0;stroke-opacity:1;enable-background:new"
           d="m 392.7526,156.91646 c 0,0 -117.99478,44.0399 -124.39639,45.7552 -6.40159,1.71532 -12.98163,-2.08367 -14.69694,-8.48526 -1.7153,-6.40159 2.08369,-12.98164 8.48528,-14.69695 6.40161,-1.71529 130.60805,-22.57299 130.60805,-22.57299 z"
           id="path1154"
           inkscape:connector-curvature="0"
           sodipodi:nodetypes="csssc" />
        <circle
           style="display:inline;opacity:1;fill:#808080;fill-opacity:1;stroke:none;stroke-width:219.498;stroke-linecap:round;stroke-linejoin:round;stroke-miterlimit:4;stroke-dasharray:none;stroke-dashoffset:0;stroke-opacity:1;enable-background:new"
           id="circle1156"
           cx="265.24741"
           cy="191.08354"
           r="4" />
      </g>
      <path
         sodipodi:nodetypes="scsss"
         id="path1160"
         d="m 369.99987,193.83321 c 0,2.76152 -4.99989,6.87512 -4.99989,6.87512 0,0 -5.00011,-4.1136 -5.00011,-6.87512 0,-2.76134 2.23862,-4.99988 5.00011,-4.99988 2.76151,0 4.99989,2.23849 4.99989,4.99988 z"
         inkscape:connector-curvature="0"
         style="display:inline;opacity:0.2;fill:#000000;fill-opacity:1;stroke:none;stroke-width:0.042375;stroke-miterlimit:4;stroke-dasharray:none;stroke-opacity:1;enable-background:new" />
      <path
         sodipodi:nodetypes="scsss"
         id="path1162"
         d="m 369.99987,192.99987 c 0,2.76153 -4.99989,6.87513 -4.99989,6.87513 0,0 -5.00011,-4.1136 -5.00011,-6.87513 0,-2.76134 2.23862,-4.99987 5.00011,-4.99987 2.76151,0 4.99989,2.23849 4.99989,4.99987 z"
         inkscape:connector-curvature="0"
         style="display:inline;fill:#e95420;fill-opacity:1;stroke:none;stroke-width:0.042375;stroke-miterlimit:4;stroke-dasharray:none;stroke-opacity:1;enable-background:new" />
      <g
         id="g1176"
         transform="matrix(0.83333333,0,0,0.83333333,93.333312,31.333333)"
         style="stroke-width:1.2">
        <circle
           class="cls-2"
           cx="322.6925"
           cy="193.93251"
           r="1.2562499"
           id="circle1164"
           style="fill:#ffffff;stroke-width:1.2" />
        <circle
           class="cls-2"
           cx="327.91251"
           cy="191.18001"
           r="1.2562499"
           id="circle1166"
           style="fill:#ffffff;stroke-width:1.2" />
        <path
           class="cls-2"
           d="m 325.52375,197.15751 a 3.03,3.03 0 0 1 -2.08125,-1.59375 1.81125,1.81125 0 0 1 -1.06875,0.13124 4.07625,4.07625 0 0 0 2.94375,2.4675 4.125,4.125 0 0 0 0.88875,0.0937 1.76625,1.76625 0 0 1 -0.375,-1.05 1.08375,1.08375 0 0 1 -0.3075,-0.0487 z"
           id="path1168"
           style="fill:#ffffff;stroke-width:1.2" />
        <circle
           class="cls-2"
           cx="327.63126"
           cy="197.16875"
           r="1.2562499"
           id="circle1170"
           style="fill:#ffffff;stroke-width:1.2" />
        <path
           class="cls-2"
           d="m 329.375,196.71125 a 4.125,4.125 0 0 0 0.20625,-4.81125 1.81875,1.81875 0 0 1 -0.705,0.825 3.0825,3.0825 0 0 1 0.2925,2.08125 3.03,3.03 0 0 1 -0.39375,0.975 1.7175,1.7175 0 0 1 0.6,0.93 z"
           id="path1172"
           style="fill:#ffffff;stroke-width:1.2" />
        <path
           class="cls-2"
           d="m 322.5875,192.125 h 0.0937 a 1.74375,1.74375 0 0 1 0.375,0.0375 1.815,1.815 0 0 1 0.57,0.23625 3.045,3.045 0 0 1 2.4675,-1.32 2.4075,2.4075 0 0 1 0.0375,-0.28125 1.73625,1.73625 0 0 1 0.345,-0.73125 4.125,4.125 0 0 0 -3.88875,2.05875 z"
           id="path1174"
           style="fill:#ffffff;stroke-width:1.2" />
      </g>
    </g>
  </g>
</svg>
