<?xml version="1.0" encoding="utf-8"?>
<!-- Generator: Adobe Illustrator 16.0.0, SVG Export Plug-In . SVG Version: 6.00 Build 0)  -->
<!DOCTYPE svg PUBLIC "-//W3C//DTD SVG 1.1//EN" "http://www.w3.org/Graphics/SVG/1.1/DTD/svg11.dtd">
<svg version="1.1" id="Layer_1" xmlns="http://www.w3.org/2000/svg" xmlns:xlink="http://www.w3.org/1999/xlink" x="0px" y="0px"
	 width="72px" height="72px" viewBox="0 0 72 72" enable-background="new 0 0 72 72" xml:space="preserve">
<path fill="#DA4A26" d="M35.999,0C16.149,0,0,16.149,0,36.001C0,55.851,16.149,72,35.999,72C55.85,72,72,55.851,72,36.001
	C72,16.149,55.85,0,35.999,0z M10.762,55.043l0-9.01l7.803,4.505L10.762,55.043z M45.027,44.993h-3.962v-6.728H39.94v6.728h-3.375
	v-4.502H35.44v4.502h-3.375v-6.728h-1.125v6.728h-3.913v-9h17.999V44.993z M36.027,20.259L19.679,48.576l-7.794-4.501L32.135,9
	h7.785l20.249,35.075l-7.794,4.501L36.027,20.259z M61.292,55.043l-7.802-4.505l7.803-4.505L61.292,55.043z"/>
</svg>
