<?xml version="1.0" encoding="utf-8"?>
<!-- Generator: Adobe Illustrator 16.0.0, SVG Export Plug-In . SVG Version: 6.00 Build 0)  -->
<!DOCTYPE svg PUBLIC "-//W3C//DTD SVG 1.1//EN" "http://www.w3.org/Graphics/SVG/1.1/DTD/svg11.dtd">
<svg version="1.1" id="Layer_1" xmlns="http://www.w3.org/2000/svg" xmlns:xlink="http://www.w3.org/1999/xlink" x="0px" y="0px"
	 width="72px" height="72px" viewBox="0 0 72 72" enable-background="new 0 0 72 72" xml:space="preserve">
<g>
	<path fill="#DA4A26" d="M35.979,15.773c-7.439,0-13.491,6.051-13.491,13.488c0,0.029,0,0.06,0.002,0.09
		c0.045,1.203,1.034,2.164,2.248,2.164h3.371v2.235h1.127c1.241,0,2.251-1.009,2.251-2.249c0-0.622,0.504-1.125,1.125-1.125
		s1.125,0.503,1.125,1.125c0,2.48-2.019,4.499-4.501,4.499h-1.127v2.993c0,0.804,0.428,1.546,1.123,1.948
		c2.047,1.184,4.38,1.809,6.747,1.809c7.439,0,13.492-6.051,13.492-13.489C49.472,21.824,43.419,15.773,35.979,15.773z
		 M32.607,24.749c-0.622,0-1.125-0.503-1.125-1.124c0-0.622,0.503-1.125,1.125-1.125c0.621,0,1.125,0.503,1.125,1.125
		C33.732,24.246,33.229,24.749,32.607,24.749z"/>
	<path fill="#DA4A26" d="M61.453,10.545C54.651,3.745,45.609,0,35.991,0s-18.66,3.745-25.462,10.545
		c-14.039,14.036-14.039,36.875,0,50.912C17.33,68.255,26.372,72,35.99,72c0.001,0,0.001,0,0.003,0
		c9.616,0,18.658-3.745,25.46-10.544C68.254,54.655,72,45.616,72,36.001C72,26.385,68.254,17.345,61.453,10.545z M52.864,45.007
		H19.113c-5.594,0-10.128-4.533-10.128-10.124c0-5.383,4.199-9.78,9.5-10.104c-2.37-4.751-0.659-10.586,4.003-13.277
		c4.661-2.69,10.569-1.254,13.501,3.173c2.932-4.426,8.84-5.863,13.502-3.172c4.66,2.69,6.371,8.524,4.001,13.276
		c5.301,0.324,9.499,4.722,9.499,10.104C62.991,40.474,58.458,45.007,52.864,45.007z"/>
</g>
</svg>
