<?xml version="1.0" encoding="UTF-8" standalone="no"?>
<!-- Generator: Adobe Illustrator 16.0.0, SVG Export Plug-In . SVG Version: 6.00 Build 0)  -->

<svg
   xmlns:dc="http://purl.org/dc/elements/1.1/"
   xmlns:cc="http://creativecommons.org/ns#"
   xmlns:rdf="http://www.w3.org/1999/02/22-rdf-syntax-ns#"
   xmlns:svg="http://www.w3.org/2000/svg"
   xmlns="http://www.w3.org/2000/svg"
   xmlns:sodipodi="http://sodipodi.sourceforge.net/DTD/sodipodi-0.dtd"
   xmlns:inkscape="http://www.inkscape.org/namespaces/inkscape"
   version="1.1"
   id="Layer_1"
   x="0px"
   y="0px"
   width="40px"
   height="40px"
   viewBox="0 0 40 40"
   enable-background="new 0 0 40 40"
   xml:space="preserve"
   inkscape:version="0.48.4 r9939"
   sodipodi:docname="cloud_40px.svg"><metadata
     id="metadata13"><rdf:RDF><cc:Work
         rdf:about=""><dc:format>image/svg+xml</dc:format><dc:type
           rdf:resource="http://purl.org/dc/dcmitype/StillImage" /></cc:Work></rdf:RDF></metadata><defs
     id="defs11" /><sodipodi:namedview
     pagecolor="#ffffff"
     bordercolor="#666666"
     borderopacity="1"
     objecttolerance="10"
     gridtolerance="10"
     guidetolerance="10"
     inkscape:pageopacity="0"
     inkscape:pageshadow="2"
     inkscape:window-width="1855"
     inkscape:window-height="1056"
     id="namedview9"
     showgrid="false"
     inkscape:zoom="5.9"
     inkscape:cx="20"
     inkscape:cy="20"
     inkscape:window-x="65"
     inkscape:window-y="24"
     inkscape:window-maximized="1"
     inkscape:current-layer="Layer_1" /><g
     id="g3"
     style="fill:#ded9cb;fill-opacity:1"><path
       fill="#FFFFFF"
       d="M19.988,8.763c-4.133,0-7.495,3.361-7.495,7.493c0,0.017,0,0.033,0.001,0.05   c0.025,0.668,0.575,1.202,1.249,1.202h1.873v1.242h0.626c0.69,0,1.251-0.561,1.251-1.25c0-0.346,0.28-0.625,0.625-0.625   c0.345,0,0.625,0.279,0.625,0.625c0,1.378-1.122,2.5-2.501,2.5h-0.626v1.663c0,0.447,0.238,0.859,0.624,1.083   c1.137,0.657,2.434,1.005,3.748,1.005c4.134,0,7.496-3.362,7.496-7.495C27.484,12.125,24.122,8.763,19.988,8.763z M18.115,13.75   c-0.346,0-0.625-0.279-0.625-0.625c0-0.346,0.279-0.625,0.625-0.625c0.345,0,0.625,0.279,0.625,0.625   C18.74,13.47,18.46,13.75,18.115,13.75z"
       id="path5"
       style="fill:#ded9cb;fill-opacity:1" /><path
       fill="#FFFFFF"
       d="M34.141,5.858C30.362,2.081,25.339,0,19.995,0C14.652,0,9.628,2.081,5.85,5.858   c-7.799,7.798-7.799,20.486,0,28.284C9.628,37.919,14.651,40,19.994,40c0.001,0,0.001,0,0.002,0c5.343,0,10.366-2.081,14.145-5.857   C37.919,30.364,40,25.343,40,20S37.919,9.636,34.141,5.858z M29.369,25.004h-18.75c-3.108,0-5.627-2.519-5.627-5.625   c0-2.991,2.333-5.434,5.278-5.614c-1.316-2.639-0.366-5.881,2.224-7.376c2.589-1.495,5.872-0.697,7.5,1.763   c1.629-2.459,4.911-3.258,7.501-1.762c2.589,1.495,3.539,4.736,2.223,7.375c2.945,0.18,5.277,2.623,5.277,5.614   C34.995,22.485,32.477,25.004,29.369,25.004z"
       id="path7"
       style="fill:#ded9cb;fill-opacity:1" /></g></svg>