<?xml version="1.0" encoding="utf-8"?>
<!-- Generator: Adobe Illustrator 16.0.0, SVG Export Plug-In . SVG Version: 6.00 Build 0)  -->
<!DOCTYPE svg PUBLIC "-//W3C//DTD SVG 1.1//EN" "http://www.w3.org/Graphics/SVG/1.1/DTD/svg11.dtd">
<svg version="1.1" id="Layer_1" xmlns="http://www.w3.org/2000/svg" xmlns:xlink="http://www.w3.org/1999/xlink" x="0px" y="0px"
	 width="148px" height="148px" viewBox="0 0 148 148" enable-background="new 0 0 148 148" xml:space="preserve">
<path fill="#DC4B26" d="M73.999,0C33.195,0,0,33.197,0,74.002C0,114.805,33.195,148,73.999,148S148,114.805,148,74.002
	C148,33.197,114.803,0,73.999,0z M96.975,107.04c3.611,3.612,3.611,9.47,0,13.082c-1.807,1.806-4.174,2.709-6.541,2.709
	s-4.734-0.903-6.541-2.709l-9.811-9.811l-9.811,9.812c-1.806,1.806-4.174,2.709-6.541,2.709c-2.368,0-4.734-0.903-6.541-2.709
	c-3.613-3.612-3.612-9.47,0-13.082l9.811-9.812l-9.811-9.812c-3.612-3.612-3.613-9.47,0-13.082c3.612-3.612,9.469-3.612,13.081,0
	l9.811,9.811l9.811-9.811c3.613-3.612,9.471-3.611,13.082,0c3.611,3.612,3.611,9.47,0,13.082l-9.811,9.811L96.975,107.04z
	 M54.517,54.363c10.821-10.82,28.425-10.819,39.245,0l-6.541,6.541c-7.213-7.213-18.95-7.213-26.164,0L54.517,54.363z
	 M100.302,47.821c-14.426-14.427-37.899-14.427-52.326,0l-6.541-6.541c18.032-18.033,47.374-18.034,65.407,0L100.302,47.821z
	 M113.383,34.739c-21.639-21.64-56.849-21.639-78.488,0l-6.541-6.541c25.247-25.247,66.324-25.247,91.57,0L113.383,34.739z"/>
</svg>
