<?xml version="1.0" encoding="utf-8"?>
<!-- Generator: Adobe Illustrator 16.0.0, SVG Export Plug-In . SVG Version: 6.00 Build 0)  -->
<!DOCTYPE svg PUBLIC "-//W3C//DTD SVG 1.1//EN" "http://www.w3.org/Graphics/SVG/1.1/DTD/svg11.dtd">
<svg version="1.1" id="Layer_1" xmlns="http://www.w3.org/2000/svg" xmlns:xlink="http://www.w3.org/1999/xlink" x="0px" y="0px"
	 width="148px" height="148px" viewBox="0 0 148 148" enable-background="new 0 0 148 148" xml:space="preserve">
<path fill="#DC4B26" d="M73.999,0C33.196,0,0,33.326,0,74.288C0,112.131,28.338,143.453,64.83,148v-45.812
	c0-5.129,4.142-9.286,9.25-9.286s9.251,4.157,9.251,9.286v45.794C119.746,143.362,148,112.075,148,74.288
	C148,33.326,114.804,0,73.999,0z M74.021,83.507c-5.109,0-9.25-4.158-9.25-9.288c0-5.128,4.141-9.286,9.25-9.286
	c5.108,0,9.25,4.157,9.25,9.286C83.271,79.349,79.129,83.507,74.021,83.507z M87.221,61.139c-7.214-7.242-18.95-7.241-26.163,0
	l-6.54-6.566c10.819-10.861,28.425-10.861,39.244,0L87.221,61.139z M100.302,48.006c-14.426-14.482-37.899-14.482-52.325,0
	l-6.541-6.566c18.033-18.104,47.375-18.104,65.407,0L100.302,48.006z M113.384,34.874c-21.641-21.723-56.85-21.723-78.488,0
	l-6.541-6.566c25.246-25.344,66.324-25.344,91.569,0L113.384,34.874z"/>
</svg>
