<?xml version="1.0" encoding="UTF-8" standalone="no"?>
<!-- Generator: Adobe Illustrator 15.0.0, SVG Export Plug-In . SVG Version: 6.00 Build 0)  -->

<svg
   xmlns:dc="http://purl.org/dc/elements/1.1/"
   xmlns:cc="http://creativecommons.org/ns#"
   xmlns:rdf="http://www.w3.org/1999/02/22-rdf-syntax-ns#"
   xmlns:svg="http://www.w3.org/2000/svg"
   xmlns="http://www.w3.org/2000/svg"
   xmlns:sodipodi="http://sodipodi.sourceforge.net/DTD/sodipodi-0.dtd"
   xmlns:inkscape="http://www.inkscape.org/namespaces/inkscape"
   version="1.1"
   id="Layer_1"
   x="0px"
   y="0px"
   width="40px"
   height="40px"
   viewBox="0 0 40 40"
   enable-background="new 0 0 40 40"
   xml:space="preserve"
   inkscape:version="0.48.4 r9939"
   sodipodi:docname="music_40px.svg"><metadata
     id="metadata9"><rdf:RDF><cc:Work
         rdf:about=""><dc:format>image/svg+xml</dc:format><dc:type
           rdf:resource="http://purl.org/dc/dcmitype/StillImage" /></cc:Work></rdf:RDF></metadata><defs
     id="defs7" /><sodipodi:namedview
     pagecolor="#ffffff"
     bordercolor="#666666"
     borderopacity="1"
     objecttolerance="10"
     gridtolerance="10"
     guidetolerance="10"
     inkscape:pageopacity="0"
     inkscape:pageshadow="2"
     inkscape:window-width="1855"
     inkscape:window-height="1056"
     id="namedview5"
     showgrid="false"
     inkscape:zoom="5.9"
     inkscape:cx="-9.8305085"
     inkscape:cy="20"
     inkscape:window-x="65"
     inkscape:window-y="24"
     inkscape:window-maximized="1"
     inkscape:current-layer="Layer_1" /><path
     fill="#FFFFFF"
     d="M19.999-0.001C8.953-0.001,0,8.953,0,20c0,11.046,8.953,20.001,19.999,20.001C31.046,40.001,40,31.046,40,20  C40,8.953,31.046-0.001,19.999-0.001z M20.005,16.249c0.595,0,1.16,0.085,1.687,0.235V6.896c0-0.584,0.301-1.127,0.797-1.437  s1.116-0.341,1.642-0.083l5.107,2.504c0.84,0.411,1.187,1.426,0.774,2.266c-0.411,0.84-1.426,1.186-2.266,0.774l-2.671-1.31v10.756  c0.002,0.038,0.008,0.074,0.008,0.113c0,2.373-2.23,4.232-5.078,4.232c-2.847,0-5.079-1.859-5.079-4.232  S17.158,16.249,20.005,16.249z M14.946,26.405c1.35,1.378,3.155,2.148,5.083,2.168c1.934,0.02,3.75-0.712,5.128-2.062l1.443,1.475  c-1.747,1.712-4.05,2.651-6.493,2.651c-0.033,0-0.066,0-0.1-0.001c-2.48-0.025-4.801-1.016-6.537-2.788L14.946,26.405z   M20.109,35.795c-0.052,0-0.104,0-0.156,0c-3.858-0.041-7.468-1.58-10.167-4.338l1.475-1.443c2.313,2.363,5.408,3.684,8.714,3.719  c3.312,0.042,6.429-1.221,8.791-3.535l1.443,1.475C27.49,34.335,23.909,35.795,20.109,35.795z"
     id="path3"
     style="fill:#ded9cb;fill-opacity:1" /></svg>