<?xml version="1.0" encoding="utf-8"?>
<!-- Generator: Adobe Illustrator 15.0.0, SVG Export Plug-In . SVG Version: 6.00 Build 0)  -->
<!DOCTYPE svg PUBLIC "-//W3C//DTD SVG 1.1//EN" "http://www.w3.org/Graphics/SVG/1.1/DTD/svg11.dtd">
<svg version="1.1" id="Layer_1" xmlns="http://www.w3.org/2000/svg" xmlns:xlink="http://www.w3.org/1999/xlink" x="0px" y="0px"
	 width="72px" height="72px" viewBox="0 0 72 72" enable-background="new 0 0 72 72" xml:space="preserve">
<path fill="#DC4A26" d="M35.999,0C16.115,0,0,16.116,0,35.999C0,55.883,16.116,72,35.999,72S72,55.883,72,35.999
	C72,16.116,55.882,0,35.999,0z M36.009,29.248c1.071,0,2.088,0.153,3.035,0.422V12.413c0-1.052,0.543-2.029,1.436-2.585
	c0.892-0.557,2.008-0.613,2.953-0.149l9.194,4.508c1.512,0.741,2.135,2.567,1.395,4.078c-0.741,1.512-2.566,2.134-4.078,1.395
	l-4.807-2.357v19.36c0.003,0.068,0.014,0.134,0.014,0.204c0,4.271-4.017,7.616-9.142,7.616c-5.126,0-9.142-3.346-9.142-7.616
	C26.867,32.593,30.883,29.248,36.009,29.248z M26.903,47.53c2.427,2.479,5.678,3.866,9.149,3.901c3.48,0.035,6.75-1.282,9.23-3.71
	l2.599,2.653c-3.146,3.082-7.291,4.773-11.688,4.773c-0.059,0-0.119-0.002-0.179-0.002c-4.464-0.047-8.643-1.83-11.765-5.02
	L26.903,47.53z M36.197,64.433c-0.095,0-0.188-0.001-0.281-0.002c-6.944-0.074-13.444-2.846-18.301-7.808l2.654-2.6
	c4.164,4.254,9.734,6.63,15.686,6.693c5.959,0.075,11.571-2.195,15.822-6.361l2.599,2.653
	C49.483,61.802,43.035,64.433,36.197,64.433z"/>
</svg>
