<?xml version="1.0" encoding="UTF-8" standalone="no"?>
<!-- Generator: Adobe Illustrator 15.0.0, SVG Export Plug-In . SVG Version: 6.00 Build 0)  -->

<svg
   xmlns:dc="http://purl.org/dc/elements/1.1/"
   xmlns:cc="http://creativecommons.org/ns#"
   xmlns:rdf="http://www.w3.org/1999/02/22-rdf-syntax-ns#"
   xmlns:svg="http://www.w3.org/2000/svg"
   xmlns="http://www.w3.org/2000/svg"
   xmlns:sodipodi="http://sodipodi.sourceforge.net/DTD/sodipodi-0.dtd"
   xmlns:inkscape="http://www.inkscape.org/namespaces/inkscape"
   version="1.1"
   id="Layer_1"
   x="0px"
   y="0px"
   width="40px"
   height="40px"
   viewBox="0 0 40 40"
   enable-background="new 0 0 40 40"
   xml:space="preserve"
   inkscape:version="0.48.4 r9939"
   sodipodi:docname="photos_40px.svg"><metadata
     id="metadata9"><rdf:RDF><cc:Work
         rdf:about=""><dc:format>image/svg+xml</dc:format><dc:type
           rdf:resource="http://purl.org/dc/dcmitype/StillImage" /></cc:Work></rdf:RDF></metadata><defs
     id="defs7" /><sodipodi:namedview
     pagecolor="#ffffff"
     bordercolor="#666666"
     borderopacity="1"
     objecttolerance="10"
     gridtolerance="10"
     guidetolerance="10"
     inkscape:pageopacity="0"
     inkscape:pageshadow="2"
     inkscape:window-width="1855"
     inkscape:window-height="1056"
     id="namedview5"
     showgrid="false"
     inkscape:zoom="5.9"
     inkscape:cx="-9.8305085"
     inkscape:cy="20"
     inkscape:window-x="65"
     inkscape:window-y="24"
     inkscape:window-maximized="1"
     inkscape:current-layer="Layer_1" /><path
     fill="#FFFFFF"
     d="M20,0C8.953,0,0,8.954,0,20c0,11.046,8.953,20,20,20c11.045,0,20-8.954,20-20C40,8.954,31.045,0,20,0z   M33.334,28.007c0,1.474-1.195,2.666-2.668,2.666H9.333c-1.473,0-2.667-1.192-2.667-2.666v-16c0-1.473,1.194-2.667,2.667-2.667h8.63  V8.009c0-0.737,0.597-1.334,1.333-1.334h1.333c0.736,0,1.334,0.597,1.334,1.334V9.34h8.703c1.473,0,2.667,1.193,2.667,2.667  L33.334,28.007L33.334,28.007z M17.333,12.006c-4.411,0-8,3.589-8,8c0,4.411,3.589,8.001,8,8.001c4.412,0,8-3.59,8-8.001  C25.333,15.595,21.745,12.006,17.333,12.006z M17.333,22.674c-1.47,0-2.666-1.197-2.666-2.668c0-1.47,1.196-2.667,2.666-2.667  S20,18.535,20,20.006S18.804,22.674,17.333,22.674z M30.682,13.327v1.334c0,0.736-0.598,1.333-1.333,1.333h-1.333  c-0.736,0-1.334-0.597-1.334-1.333v-1.334c0-0.736,0.598-1.333,1.334-1.333h1.333C30.084,11.994,30.682,12.591,30.682,13.327z"
     id="path3"
     style="fill:#ded9cb;fill-opacity:1" /></svg>