<?xml version="1.0" encoding="utf-8"?>
<!-- Generator: Adobe Illustrator 15.0.0, SVG Export Plug-In . SVG Version: 6.00 Build 0)  -->
<!DOCTYPE svg PUBLIC "-//W3C//DTD SVG 1.1//EN" "http://www.w3.org/Graphics/SVG/1.1/DTD/svg11.dtd">
<svg version="1.1" id="Layer_1" xmlns="http://www.w3.org/2000/svg" xmlns:xlink="http://www.w3.org/1999/xlink" x="0px" y="0px"
	 width="72px" height="72px" viewBox="0 0 72 72" enable-background="new 0 0 72 72" xml:space="preserve">
<path fill="#DC4A26" d="M36,0C16.117,0,0,16.117,0,35.999C0,55.882,16.117,72,36,72c19.882,0,36-16.118,36-36.001
	C72,16.117,55.882,0,36,0z M60,50.412c0,2.651-2.15,4.8-4.8,4.8H16.8c-2.651,0-4.8-2.148-4.8-4.8v-28.8c0-2.651,2.148-4.8,4.8-4.8
	h15.533v-2.397c0-1.325,1.075-2.4,2.399-2.4h2.4c1.324,0,2.399,1.075,2.399,2.4v2.397h15.667c2.65,0,4.799,2.149,4.799,4.8v28.8H60z
	 M31.2,21.612c-7.94,0-14.399,6.46-14.399,14.399c0,7.941,6.459,14.401,14.399,14.401c7.939,0,14.399-6.46,14.399-14.401
	C45.601,28.072,39.14,21.612,31.2,21.612z M31.2,40.812c-2.646,0-4.799-2.153-4.799-4.801c0-2.646,2.153-4.8,4.799-4.8
	c2.647,0,4.801,2.153,4.801,4.8C36.001,38.658,33.847,40.812,31.2,40.812z M55.228,23.989v2.401c0,1.325-1.075,2.399-2.401,2.399
	h-2.398c-1.325,0-2.4-1.074-2.4-2.399v-2.401c0-1.325,1.075-2.4,2.4-2.4h2.398C54.151,21.589,55.228,22.663,55.228,23.989z"/>
</svg>
