<?xml version="1.0" encoding="UTF-8" standalone="no"?>
<svg
   inkscape:export-ydpi="96"
   inkscape:export-xdpi="96"
   width="256"
   height="256"
   id="svg11300"
   sodipodi:version="0.32"
   inkscape:version="1.1.2 (76b9e6a115, 2022-02-25)"
   sodipodi:docname="ubiquity.svg"
   inkscape:output_extension="org.inkscape.output.svg.inkscape"
   version="1.0"
   style="display:inline;enable-background:new"
   inkscape:export-filename="/home/stuart/Pictures/disk.png"
   xmlns:inkscape="http://www.inkscape.org/namespaces/inkscape"
   xmlns:sodipodi="http://sodipodi.sourceforge.net/DTD/sodipodi-0.dtd"
   xmlns:xlink="http://www.w3.org/1999/xlink"
   xmlns="http://www.w3.org/2000/svg"
   xmlns:svg="http://www.w3.org/2000/svg"
   xmlns:rdf="http://www.w3.org/1999/02/22-rdf-syntax-ns#"
   xmlns:cc="http://creativecommons.org/ns#"
   xmlns:dc="http://purl.org/dc/elements/1.1/">
  <title
     id="title3004">Suru Icon Theme Template</title>
  <sodipodi:namedview
     stroke="#ef2929"
     fill="#f57900"
     id="base"
     pagecolor="#ffffff"
     bordercolor="#000000"
     borderopacity="0.25490196"
     inkscape:pageopacity="0"
     inkscape:pageshadow="2"
     inkscape:zoom="1"
     inkscape:cx="346.5"
     inkscape:cy="163"
     inkscape:current-layer="layer7"
     showgrid="false"
     inkscape:grid-bbox="true"
     inkscape:document-units="px"
     inkscape:showpageshadow="false"
     inkscape:window-width="1920"
     inkscape:window-height="1043"
     inkscape:window-x="1920"
     inkscape:window-y="0"
     width="400px"
     height="300px"
     inkscape:snap-nodes="true"
     inkscape:snap-bbox="true"
     gridtolerance="10000"
     inkscape:object-nodes="true"
     inkscape:snap-grids="true"
     showguides="true"
     inkscape:guide-bbox="true"
     inkscape:window-maximized="1"
     inkscape:bbox-paths="true"
     inkscape:snap-bbox-midpoints="true"
     inkscape:snap-global="true"
     inkscape:object-paths="true"
     inkscape:snap-intersection-paths="true"
     inkscape:snap-smooth-nodes="true"
     inkscape:pagecheckerboard="false"
     showborder="false"
     inkscape:document-rotation="0"
     fit-margin-top="0"
     fit-margin-left="0"
     fit-margin-right="0"
     fit-margin-bottom="0">
    <inkscape:grid
       spacingy="1"
       spacingx="1"
       id="grid5883"
       type="xygrid"
       enabled="true"
       visible="true"
       empspacing="4"
       snapvisiblegridlinesonly="true"
       originx="-24"
       originy="-28" />
    <inkscape:grid
       type="xygrid"
       id="grid11592"
       empspacing="2"
       visible="true"
       enabled="false"
       spacingx="0.5"
       spacingy="0.5"
       color="#ff0000"
       opacity="0.1254902"
       empcolor="#ff0000"
       empopacity="0.25098039"
       snapvisiblegridlinesonly="true"
       originx="-24"
       originy="-28" />
  </sodipodi:namedview>
  <defs
     id="defs3">
    <filter
       inkscape:collect="always"
       style="color-interpolation-filters:sRGB"
       id="filter4346"
       x="-0.014454287"
       width="1.0289086"
       y="-0.011357288"
       height="1.0227146">
      <feGaussianBlur
         inkscape:collect="always"
         stdDeviation="2.120027"
         id="feGaussianBlur4348" />
    </filter>
    <linearGradient
       inkscape:collect="always"
       xlink:href="#linearGradient4360"
       id="linearGradient4358"
       x1="88"
       y1="88"
       x2="488"
       y2="488"
       gradientUnits="userSpaceOnUse" />
    <linearGradient
       id="linearGradient4360"
       inkscape:collect="always">
      <stop
         id="stop4362"
         offset="0"
         style="stop-color:#000000;stop-opacity:0.58823532" />
      <stop
         style="stop-color:#000000;stop-opacity:0"
         offset="0.88"
         id="stop4364" />
      <stop
         id="stop4366"
         offset="1"
         style="stop-color:#000000;stop-opacity:1" />
    </linearGradient>
    <filter
       inkscape:collect="always"
       style="color-interpolation-filters:sRGB"
       id="filter4380"
       x="-0.057817147"
       width="1.1156343"
       y="-0.045429151"
       height="1.0908583">
      <feGaussianBlur
         inkscape:collect="always"
         stdDeviation="8.4801079"
         id="feGaussianBlur4382" />
    </filter>
    <linearGradient
       gradientUnits="userSpaceOnUse"
       y2="169.65668"
       x2="4.4137931"
       y1="386.29544"
       x1="494.34482"
       id="linearGradient4226"
       xlink:href="#linearGradient876"
       inkscape:collect="always"
       gradientTransform="matrix(0,-0.453125,-0.45311204,0,277.957,268)" />
    <clipPath
       clipPathUnits="userSpaceOnUse"
       id="clipPath994">
      <path
         style="color:#000000;display:inline;overflow:visible;visibility:visible;fill:#cdcdcd;fill-opacity:1;fill-rule:nonzero;stroke:none;stroke-width:2;stroke-miterlimit:4;stroke-dasharray:none;stroke-opacity:1;marker:none;enable-background:accumulate"
         d="m 335.73108,62 c -8.82418,0 -9.77365,0.90635 -9.7304,9.74838 v 12.25162 12.25162 c -0.0433,8.84203 0.90622,9.74838 9.7304,9.74838 h 16.53919 c 8.82418,0 9.7304,-0.90625 9.7304,-9.74838 v -12.25162 -12.25162 c 0,-8.84213 -0.90622,-9.74838 -9.7304,-9.74838 z"
         id="path996"
         inkscape:connector-curvature="0"
         sodipodi:nodetypes="scccssscsss" />
    </clipPath>
    <clipPath
       clipPathUnits="userSpaceOnUse"
       id="clipPath971">
      <path
         style="color:#000000;display:inline;overflow:visible;visibility:visible;opacity:1;fill:#46a926;fill-opacity:1;fill-rule:nonzero;stroke:none;stroke-width:2;stroke-miterlimit:4;stroke-dasharray:none;stroke-opacity:1;marker:none;enable-background:accumulate"
         d="m 327.8652,189 c -4.41209,0 -4.88682,0.45318 -4.8652,4.87419 v 6.12581 6.12581 c -0.0217,4.42101 0.45311,4.87419 4.8652,4.87419 h 8.2696 c 4.41209,0 4.8652,-0.45312 4.8652,-4.87419 v -6.12581 -6.12581 c 0,-4.42106 -0.45312,-4.87419 -4.86521,-4.87419 z"
         id="path973"
         inkscape:connector-curvature="0"
         sodipodi:nodetypes="scccssscsss" />
    </clipPath>
    <clipPath
       clipPathUnits="userSpaceOnUse"
       id="clipPath983">
      <path
         sodipodi:nodetypes="scccssscsss"
         inkscape:connector-curvature="0"
         id="path985"
         d="m 325.09646,237 c -2.80769,0 -3.10979,0.28839 -3.09603,3.10176 v 3.89824 3.89824 c -0.0138,2.81337 0.28834,3.10176 3.09603,3.10176 h 5.8075 c 2.8077,0 3.09604,-0.28835 3.09604,-3.10176 v -3.89824 -3.89824 c 0,-2.8134 -0.28835,-3.10176 -3.09604,-3.10176 z"
         style="color:#000000;display:inline;overflow:visible;visibility:visible;opacity:1;fill:#46a926;fill-opacity:1;fill-rule:nonzero;stroke:none;stroke-width:2;stroke-miterlimit:4;stroke-dasharray:none;stroke-opacity:1;marker:none;enable-background:accumulate" />
    </clipPath>
    <clipPath
       clipPathUnits="userSpaceOnUse"
       id="clipPath994-1">
      <path
         style="color:#000000;display:inline;overflow:visible;visibility:visible;fill:#cdcdcd;fill-opacity:1;fill-rule:nonzero;stroke:none;stroke-width:2;stroke-miterlimit:4;stroke-dasharray:none;stroke-opacity:1;marker:none;enable-background:accumulate"
         d="m 335.73108,62 c -8.82418,0 -9.77365,0.90635 -9.7304,9.74838 v 12.25162 12.25162 c -0.0433,8.84203 0.90622,9.74838 9.7304,9.74838 h 16.53919 c 8.82418,0 9.7304,-0.90625 9.7304,-9.74838 v -12.25162 -12.25162 c 0,-8.84213 -0.90622,-9.74838 -9.7304,-9.74838 z"
         id="path996-8"
         inkscape:connector-curvature="0"
         sodipodi:nodetypes="scccssscsss" />
    </clipPath>
    <linearGradient
       inkscape:collect="always"
       id="linearGradient876">
      <stop
         style="stop-color:#b3b3b3;stop-opacity:1"
         offset="0"
         id="stop872" />
      <stop
         style="stop-color:#d9d9d9;stop-opacity:1"
         offset="1"
         id="stop874" />
    </linearGradient>
    <linearGradient
       inkscape:collect="always"
       id="linearGradient1392">
      <stop
         style="stop-color:#e6e6e6;stop-opacity:1;"
         offset="0"
         id="stop1388" />
      <stop
         style="stop-color:#f2f2f2;stop-opacity:1"
         offset="1"
         id="stop1390" />
    </linearGradient>
    <filter
       inkscape:collect="always"
       style="color-interpolation-filters:sRGB"
       id="filter1469"
       x="-0.039928033"
       width="1.0798561"
       y="-0.12065239"
       height="1.2413048">
      <feGaussianBlur
         inkscape:collect="always"
         stdDeviation="2.3209033"
         id="feGaussianBlur1471" />
    </filter>
    <filter
       inkscape:collect="always"
       style="color-interpolation-filters:sRGB"
       id="filter1422"
       x="-0.06"
       width="1.12"
       y="-0.059999993"
       height="1.12">
      <feGaussianBlur
         inkscape:collect="always"
         stdDeviation="3.75"
         id="feGaussianBlur1424" />
    </filter>
    <linearGradient
       inkscape:collect="always"
       xlink:href="#linearGradient980"
       id="linearGradient982"
       x1="152"
       y1="124"
       x2="152"
       y2="236"
       gradientUnits="userSpaceOnUse" />
    <linearGradient
       inkscape:collect="always"
       id="linearGradient980">
      <stop
         style="stop-color:#000000;stop-opacity:1;"
         offset="0"
         id="stop976" />
      <stop
         style="stop-color:#000000;stop-opacity:0;"
         offset="1"
         id="stop978" />
    </linearGradient>
    <clipPath
       clipPathUnits="userSpaceOnUse"
       id="clipPath999">
      <path
         inkscape:connector-curvature="0"
         style="color:#000000;display:inline;overflow:visible;visibility:visible;opacity:1;fill:#5d5d5d;fill-opacity:1;fill-rule:nonzero;stroke:none;stroke-width:3.826;stroke-linecap:butt;stroke-linejoin:round;stroke-miterlimit:4;stroke-dasharray:none;stroke-dashoffset:0;stroke-opacity:1;marker:none;enable-background:accumulate"
         d="m 152,68 c -48.60106,0 -88,39.39894 -88,88 0,48.60106 39.39894,88 88,88 48.60106,0 88,-39.39894 88,-88 0,-48.60106 -39.39894,-88 -88,-88 z"
         id="path1001"
         sodipodi:nodetypes="sssss" />
    </clipPath>
    <filter
       inkscape:collect="always"
       style="color-interpolation-filters:sRGB"
       id="filter1003"
       x="-0.091250001"
       width="1.1825"
       y="-0.091250001"
       height="1.1825">
      <feGaussianBlur
         inkscape:collect="always"
         stdDeviation="4.4"
         id="feGaussianBlur1005" />
    </filter>
    <linearGradient
       inkscape:collect="always"
       xlink:href="#linearGradient1392"
       id="linearGradient2529"
       gradientUnits="userSpaceOnUse"
       gradientTransform="matrix(0,0.94666648,-0.94666648,0,299.68012,-3.8934703)"
       x1="77"
       y1="156"
       x2="227"
       y2="156" />
    <filter
       inkscape:collect="always"
       style="color-interpolation-filters:sRGB"
       id="filter3408"
       x="-0.052499999"
       width="1.105"
       y="-0.044210526"
       height="1.0884211">
      <feGaussianBlur
         inkscape:collect="always"
         stdDeviation="2.8"
         id="feGaussianBlur3410" />
    </filter>
  </defs>
  <metadata
     id="metadata4">
    <rdf:RDF>
      <cc:Work
         rdf:about="">
        <dc:format>image/svg+xml</dc:format>
        <dc:type
           rdf:resource="http://purl.org/dc/dcmitype/StillImage" />
        <dc:creator>
          <cc:Agent>
            <dc:title>Sam Hewitt</dc:title>
          </cc:Agent>
        </dc:creator>
        <dc:source />
        <cc:license
           rdf:resource="http://creativecommons.org/licenses/by-sa/4.0/" />
        <dc:title>Suru Icon Theme Template</dc:title>
        <dc:subject>
          <rdf:Bag />
        </dc:subject>
        <dc:date />
        <dc:rights>
          <cc:Agent>
            <dc:title />
          </cc:Agent>
        </dc:rights>
        <dc:publisher>
          <cc:Agent>
            <dc:title />
          </cc:Agent>
        </dc:publisher>
        <dc:identifier />
        <dc:relation />
        <dc:language />
        <dc:coverage />
        <dc:description />
        <dc:contributor>
          <cc:Agent>
            <dc:title />
          </cc:Agent>
        </dc:contributor>
      </cc:Work>
      <cc:Work
         rdf:about="">
        <dc:format>image/svg+xml</dc:format>
        <dc:type
           rdf:resource="http://purl.org/dc/dcmitype/StillImage" />
      </cc:Work>
      <cc:License
         rdf:about="http://creativecommons.org/licenses/by-sa/4.0/">
        <cc:permits
           rdf:resource="http://creativecommons.org/ns#Reproduction" />
        <cc:permits
           rdf:resource="http://creativecommons.org/ns#Distribution" />
        <cc:requires
           rdf:resource="http://creativecommons.org/ns#Notice" />
        <cc:requires
           rdf:resource="http://creativecommons.org/ns#Attribution" />
        <cc:permits
           rdf:resource="http://creativecommons.org/ns#DerivativeWorks" />
        <cc:requires
           rdf:resource="http://creativecommons.org/ns#ShareAlike" />
      </cc:License>
    </rdf:RDF>
  </metadata>
  <g
     style="display:inline"
     inkscape:groupmode="layer"
     inkscape:label="Icon"
     id="layer1"
     transform="translate(-24,-28)">
    <g
       style="display:inline"
       inkscape:label="Baseplate"
       id="layer7"
       inkscape:groupmode="layer" />
    <g
       inkscape:groupmode="layer"
       id="layer8"
       inkscape:label="Backgrounds"
       style="display:inline">
      <path
         style="color:#000000;display:inline;overflow:visible;visibility:visible;opacity:0.1;fill:#000000;fill-opacity:1;fill-rule:nonzero;stroke:none;stroke-width:2;marker:none;filter:url(#filter4346);enable-background:accumulate"
         d="m 189.84323,74 c -70.59344,0 -78.18921,7.250835 -77.84323,77.98706 v 146.01294 146.01294 c -0.34598,70.73623 7.24979,77.98706 77.84323,77.98706 h 196.31354 c 70.59344,0 76.00668,-7.27384 77.84323,-77.98706 v -146.01294 -146.01294 c 0,-70.737067 -7.24979,-77.98706 -77.84323,-77.98706 z"
         id="rect4158-9"
         inkscape:connector-curvature="0"
         sodipodi:nodetypes="scccssscsss"
         transform="matrix(0.5,0,0,0.5,8,8)" />
      <path
         sodipodi:nodetypes="scccssscsss"
         inkscape:connector-curvature="0"
         id="path4350"
         d="m 189.84323,74 c -70.59344,0 -78.18921,7.250835 -77.84323,77.98706 v 146.01294 146.01294 c -0.34598,70.73623 7.24979,77.98706 77.84323,77.98706 h 196.31354 c 70.59344,0 77.84323,-7.24999 77.84323,-77.98706 v -146.01294 -146.01294 c 0,-70.737067 -7.24979,-77.98706 -77.84323,-77.98706 z"
         style="color:#000000;display:inline;overflow:visible;visibility:visible;opacity:0.3;fill:url(#linearGradient4358);fill-opacity:1;fill-rule:nonzero;stroke:none;stroke-width:2;marker:none;filter:url(#filter4380);enable-background:accumulate"
         transform="matrix(0.5,0,0,0.5,8,8)" />
      <path
         style="color:#000000;display:inline;overflow:visible;visibility:visible;opacity:0.1;fill:#000000;fill-opacity:1;fill-rule:nonzero;stroke:none;stroke-width:1.02029;marker:none;enable-background:accumulate"
         d="m 101.8116,42 c -36.098811,0 -39.983003,3.690158 -39.806081,39.689842 v 74.310158 74.31016 c -0.176922,35.99969 3.70727,39.68984 39.806081,39.68984 h 100.38732 c 36.09881,0 39.80608,-3.68973 39.80608,-39.68984 v -74.31016 -74.310158 c 0,-36.000113 -3.70727,-39.689842 -39.80608,-39.689842 z"
         id="rect4158-7"
         inkscape:connector-curvature="0"
         sodipodi:nodetypes="scccssscsss" />
      <path
         style="color:#000000;display:inline;overflow:visible;visibility:visible;fill:url(#linearGradient4226);fill-opacity:1;fill-rule:nonzero;stroke:none;stroke-width:1;marker:none;enable-background:accumulate"
         d="m 201.07298,44 c 35.29673,0 39.09461,3.625418 38.92162,38.99353 v 73.00647 73.00647 c 0.17299,35.36812 -3.62489,38.99353 -38.92162,38.99353 h -98.15676 c -35.296716,0 -38.921616,-3.625 -38.921616,-38.99353 v -73.00647 -73.00647 c 0,-35.368533 3.6249,-38.99353 38.921616,-38.99353 z"
         id="rect4158"
         inkscape:connector-curvature="0"
         sodipodi:nodetypes="scccssscsss" />
      <path
         style="color:#000000;display:inline;overflow:visible;visibility:visible;opacity:0.3;fill:#ffffff;fill-opacity:1;fill-rule:nonzero;stroke:none;stroke-width:1;marker:none;enable-background:accumulate"
         d="m 102.92188,44 c -35.296728,0 -39.09487,3.626029 -38.92188,38.994141 v 2 c -0.17299,-35.368112 3.625152,-38.994141 38.92188,-38.994141 h 98.15624 c 35.29673,0 38.92188,3.625608 38.92188,38.994141 v -2 c 0,-35.368533 -3.62515,-38.994141 -38.92188,-38.994141 z"
         id="path931"
         inkscape:connector-curvature="0" />
      <path
         style="color:#000000;display:inline;overflow:visible;visibility:visible;opacity:0.2;fill:#ffffff;fill-opacity:1;fill-rule:nonzero;stroke:none;stroke-width:1;marker:none;enable-background:accumulate"
         d="m 63.994141,156 v 73.00586 c 0,35.36853 3.625159,38.99414 38.921879,38.99414 h 98.15625 c 35.29673,0 39.09486,-3.62602 38.92187,-38.99414 v -73.00586 z"
         id="rect4158-8"
         inkscape:connector-curvature="0" />
      <path
         style="color:#000000;display:inline;overflow:visible;visibility:visible;opacity:0.2;fill:#ffffff;fill-opacity:1;fill-rule:nonzero;stroke:none;stroke-width:1;marker:none;enable-background:accumulate"
         d="m 152,44 v 224 h 49.07227 c 35.29673,0 39.09486,-3.62602 38.92187,-38.99414 v -73.00586 -73.005859 c 0.17299,-35.368112 -3.62514,-38.994141 -38.92187,-38.994141 z"
         id="rect4158-3"
         inkscape:connector-curvature="0" />
      <path
         style="color:#000000;display:inline;overflow:visible;visibility:visible;opacity:0.2;fill:#000000;fill-opacity:1;fill-rule:nonzero;stroke:none;stroke-width:1;marker:none;enable-background:accumulate"
         d="m 102.92728,268 c -35.296731,0 -39.094875,-3.62603 -38.921885,-38.99414 v -2 c -0.17299,35.36811 3.625154,38.99414 38.921885,38.99414 h 98.15624 c 35.29673,0 38.92188,-3.62561 38.92188,-38.99414 v 2 c 0,35.36853 -3.62515,38.99414 -38.92188,38.99414 z"
         id="path931-8"
         inkscape:connector-curvature="0" />
    </g>
    <g
       inkscape:groupmode="layer"
       id="layer6"
       inkscape:label="Pictograms"
       style="display:inline">
      <circle
         style="color:#000000;display:inline;overflow:visible;visibility:visible;opacity:1;fill:#5d5d5d;fill-opacity:1;fill-rule:nonzero;stroke:none;stroke-width:3.82609;stroke-linecap:butt;stroke-linejoin:miter;stroke-miterlimit:4;stroke-dasharray:11.4783, 11.4783;stroke-dashoffset:0;stroke-opacity:1;marker:none;enable-background:accumulate"
         id="path4238"
         cx="152.00017"
         cy="-139.99983"
         transform="scale(1,-1)"
         r="80" />
      <path
         style="color:#000000;display:inline;overflow:visible;visibility:visible;opacity:0.05;fill:#000000;fill-opacity:1;fill-rule:nonzero;stroke:none;stroke-width:3.82609;stroke-linecap:butt;stroke-linejoin:miter;stroke-miterlimit:4;stroke-dasharray:11.4783, 11.4783;stroke-dashoffset:0;stroke-opacity:1;marker:none;enable-background:accumulate"
         d="m 72.00017,139.99984 a 80,80 0 0 1 80,-80.000016 80,80 0 0 1 80,80.000016 z"
         id="circle1007"
         inkscape:connector-curvature="0" />
      <path
         transform="matrix(0.90909091,0,0,0.90909091,13.818341,-1.818182)"
         style="color:#000000;display:inline;overflow:visible;visibility:visible;opacity:0.2;fill:none;fill-opacity:1;fill-rule:nonzero;stroke:url(#linearGradient982);stroke-width:11;stroke-linecap:butt;stroke-linejoin:round;stroke-miterlimit:4;stroke-dasharray:none;stroke-dashoffset:0;stroke-opacity:1;marker:none;filter:url(#filter1003);enable-background:accumulate"
         d="m 152,70 c -48.60106,0 -88,39.39894 -88,88 0,48.60106 39.39894,88 88,88 48.60106,0 88,-39.39894 88,-88 0,-48.60106 -39.39894,-88 -88,-88 z"
         id="path962"
         clip-path="url(#clipPath999)"
         inkscape:connector-curvature="0"
         sodipodi:nodetypes="sssss" />
      <path
         sodipodi:nodetypes="sssss"
         inkscape:connector-curvature="0"
         id="path1414"
         d="m 152.00017,216.99984 c -41.42135,0 -75,-33.57864 -75,-75 0,-41.42136 33.57865,-75.000018 75,-75.000018 41.42135,0 75,33.578658 75,75.000018 0,41.42136 -33.57865,75 -75,75 z"
         style="display:inline;opacity:0.2;fill:#000000;fill-opacity:1;stroke:none;stroke-width:16;stroke-linecap:round;stroke-linejoin:round;stroke-miterlimit:4;stroke-dasharray:none;stroke-dashoffset:0;stroke-opacity:1;filter:url(#filter1422);enable-background:new" />
      <path
         style="display:inline;opacity:1;fill:url(#linearGradient2529);fill-opacity:1;stroke:none;stroke-width:16;stroke-linecap:round;stroke-linejoin:round;stroke-miterlimit:4;stroke-dasharray:none;stroke-dashoffset:0;stroke-opacity:1;enable-background:new"
         d="m 152.00015,210.99983 c -39.21221,0 -70.99999,-31.78777 -70.99999,-70.99999 0,-39.21221 31.78778,-70.999985 70.99999,-70.999985 39.2122,0 70.99998,31.787775 70.99998,70.999985 0,39.21222 -31.78778,70.99999 -70.99998,70.99999 z"
         id="path949"
         inkscape:connector-curvature="0"
         sodipodi:nodetypes="sssss" />
      <path
         style="opacity:0.7;fill:#e95420;fill-opacity:1;stroke:none;stroke-width:0.25;stroke-linecap:round;stroke-linejoin:round;stroke-miterlimit:4;stroke-dasharray:none;stroke-opacity:1"
         d="m 151.69922,84.015625 a 56,56 0 0 0 -55.69922,55.984375 56,56 0 0 0 56,56 56,56 0 0 0 56,-56 56,56 0 0 0 -5.9707,-25.01562 l -7.11133,3.55664 a 48,48 0 0 1 5.08203,21.45898 48,48 0 0 1 -48,48 48,48 0 0 1 -48,-48 48,48 0 0 1 47.74219,-47.990234 z"
         id="path3202" />
      <ellipse
         style="display:inline;opacity:0.05;fill:#000000;fill-opacity:1;stroke:none;stroke-width:16;stroke-linecap:round;stroke-linejoin:round;stroke-miterlimit:4;stroke-dasharray:none;stroke-dashoffset:0;stroke-opacity:1;enable-background:new"
         id="ellipse971"
         cx="152.00008"
         cy="139.99948"
         rx="32"
         ry="32.000008" />
      <ellipse
         ry="20.000004"
         rx="20"
         cy="139.99948"
         cx="152.00008"
         id="ellipse966"
         style="display:inline;opacity:1;fill:#ffffff;fill-opacity:1;stroke:none;stroke-width:16;stroke-linecap:round;stroke-linejoin:round;stroke-miterlimit:4;stroke-dasharray:none;stroke-dashoffset:0;stroke-opacity:1;enable-background:new" />
      <g
         id="g1374"
         style="opacity:0.1;fill:#000000;fill-opacity:1"
         transform="translate(1.5981281e-4,-16.000173)">
        <circle
           transform="rotate(-30)"
           r="2"
           cy="185.09996"
           cx="53.63586"
           id="path973-2"
           style="opacity:1;fill:#000000;fill-opacity:1;stroke:none;stroke-width:16;stroke-linecap:round;stroke-linejoin:round;stroke-miterlimit:4;stroke-dasharray:none;stroke-dashoffset:0;stroke-opacity:1" />
        <circle
           transform="rotate(-30)"
           style="opacity:1;fill:#000000;fill-opacity:1;stroke:none;stroke-width:16;stroke-linecap:round;stroke-linejoin:round;stroke-miterlimit:4;stroke-dasharray:none;stroke-dashoffset:0;stroke-opacity:1"
           id="circle975"
           cx="53.63586"
           cy="237.09996"
           r="2" />
        <circle
           transform="rotate(-60)"
           style="opacity:1;fill:#000000;fill-opacity:1;stroke:none;stroke-width:16;stroke-linecap:round;stroke-linejoin:round;stroke-miterlimit:4;stroke-dasharray:none;stroke-dashoffset:0;stroke-opacity:1"
           id="circle1308"
           cx="-59.099964"
           cy="183.63586"
           r="2" />
        <circle
           transform="rotate(-60)"
           r="2"
           cy="235.63586"
           cx="-59.099964"
           id="circle1310"
           style="opacity:1;fill:#000000;fill-opacity:1;stroke:none;stroke-width:16;stroke-linecap:round;stroke-linejoin:round;stroke-miterlimit:4;stroke-dasharray:none;stroke-dashoffset:0;stroke-opacity:1" />
        <circle
           transform="rotate(-90)"
           r="2"
           cy="126"
           cx="-156"
           id="circle1314"
           style="opacity:1;fill:#000000;fill-opacity:1;stroke:none;stroke-width:16;stroke-linecap:round;stroke-linejoin:round;stroke-miterlimit:4;stroke-dasharray:none;stroke-dashoffset:0;stroke-opacity:1" />
        <circle
           transform="rotate(-90)"
           style="opacity:1;fill:#000000;fill-opacity:1;stroke:none;stroke-width:16;stroke-linecap:round;stroke-linejoin:round;stroke-miterlimit:4;stroke-dasharray:none;stroke-dashoffset:0;stroke-opacity:1"
           id="circle1316"
           cx="-156"
           cy="178"
           r="2" />
        <circle
           transform="rotate(-120)"
           style="opacity:1;fill:#000000;fill-opacity:1;stroke:none;stroke-width:16;stroke-linecap:round;stroke-linejoin:round;stroke-miterlimit:4;stroke-dasharray:none;stroke-dashoffset:0;stroke-opacity:1"
           id="circle1320"
           cx="-211.09996"
           cy="27.63586"
           r="2" />
        <circle
           transform="rotate(-120)"
           r="2"
           cy="79.635864"
           cx="-211.09996"
           id="circle1322"
           style="opacity:1;fill:#000000;fill-opacity:1;stroke:none;stroke-width:16;stroke-linecap:round;stroke-linejoin:round;stroke-miterlimit:4;stroke-dasharray:none;stroke-dashoffset:0;stroke-opacity:1" />
        <circle
           style="display:inline;opacity:1;fill:#000000;fill-opacity:1;stroke:none;stroke-width:16;stroke-linecap:round;stroke-linejoin:round;stroke-miterlimit:4;stroke-dasharray:none;stroke-dashoffset:0;stroke-opacity:1;enable-background:new"
           id="circle1326"
           cx="152"
           cy="130"
           r="2"
           transform="rotate(-150,152,156)" />
        <circle
           r="2"
           cy="182"
           cx="152"
           id="circle1328"
           style="display:inline;opacity:1;fill:#000000;fill-opacity:1;stroke:none;stroke-width:16;stroke-linecap:round;stroke-linejoin:round;stroke-miterlimit:4;stroke-dasharray:none;stroke-dashoffset:0;stroke-opacity:1;enable-background:new"
           transform="rotate(-150,152,156)" />
        <circle
           transform="scale(-1)"
           style="opacity:1;fill:#000000;fill-opacity:1;stroke:none;stroke-width:16;stroke-linecap:round;stroke-linejoin:round;stroke-miterlimit:4;stroke-dasharray:none;stroke-dashoffset:0;stroke-opacity:1"
           id="circle1332"
           cx="-152"
           cy="-182"
           r="2" />
        <circle
           transform="scale(-1)"
           r="2"
           cy="-130"
           cx="-152"
           id="circle1334"
           style="opacity:1;fill:#000000;fill-opacity:1;stroke:none;stroke-width:16;stroke-linecap:round;stroke-linejoin:round;stroke-miterlimit:4;stroke-dasharray:none;stroke-dashoffset:0;stroke-opacity:1" />
      </g>
      <ellipse
         style="display:inline;opacity:0.1;fill:#000000;fill-opacity:1;stroke:none;stroke-width:16;stroke-linecap:round;stroke-linejoin:round;stroke-miterlimit:4;stroke-dasharray:none;stroke-dashoffset:0;stroke-opacity:1;enable-background:new"
         id="ellipse1434"
         cx="152.00008"
         cy="139.99948"
         rx="16"
         ry="16.000004" />
      <ellipse
         style="display:inline;opacity:1;fill:#888888;fill-opacity:1;stroke:none;stroke-width:16;stroke-linecap:round;stroke-linejoin:round;stroke-miterlimit:4;stroke-dasharray:none;stroke-dashoffset:0;stroke-opacity:1;enable-background:new"
         id="ellipse1438"
         cx="152.00052"
         cy="139.99995"
         rx="4"
         ry="4.000001" />
      <path
         inkscape:connector-curvature="0"
         style="display:inline;opacity:0.5;fill:#ffffff;fill-opacity:1;stroke:none;stroke-width:16;stroke-linecap:round;stroke-linejoin:round;stroke-miterlimit:4;stroke-dasharray:none;stroke-dashoffset:0;stroke-opacity:1;enable-background:new"
         d="m 152.00016,68.999851 c -39.21221,0 -70.99999,31.787789 -70.99999,70.999999 0,0.31752 0.01988,0.63015 0.02405,0.94667 0.509032,-38.77386 32.08126,-70.053337 70.97596,-70.053337 38.89468,0 70.4669,31.279477 70.97595,70.053337 0.004,-0.31652 0.024,-0.62915 0.024,-0.94667 0,-39.21221 -31.78778,-70.999999 -70.99999,-70.999999 z"
         id="path1446" />
      <path
         style="display:inline;opacity:0.1;fill:#000000;fill-opacity:1;stroke:none;stroke-width:16;stroke-linecap:round;stroke-linejoin:round;stroke-miterlimit:4;stroke-dasharray:none;stroke-dashoffset:0;stroke-opacity:1;enable-background:new"
         d="m 92.00017,59.999822 a 4,4 0 0 0 -4,4 4,4 0 0 0 4,4 4,4 0 0 0 4,-4 4,4 0 0 0 -4,-4 z"
         id="path2571"
         inkscape:connector-curvature="0" />
      <path
         style="display:inline;opacity:0.1;fill:#000000;fill-opacity:1;stroke:none;stroke-width:16;stroke-linecap:round;stroke-linejoin:round;stroke-miterlimit:4;stroke-dasharray:none;stroke-dashoffset:0;stroke-opacity:1;enable-background:new"
         d="m 212.00017,59.999822 a 4,4 0 0 0 -4,4 4,4 0 0 0 4,4 4,4 0 0 0 4,-4 4,4 0 0 0 -4,-4 z"
         id="path2569"
         inkscape:connector-curvature="0" />
      <path
         sodipodi:nodetypes="csssc"
         inkscape:connector-curvature="0"
         id="path1467"
         d="m 211.50536,215.83276 c 0,0 -117.99478,44.0399 -124.39638,45.7552 -6.4016,1.71532 -12.98164,-2.08367 -14.69694,-8.48526 -1.71531,-6.40159 2.08368,-12.98164 8.48528,-14.69695 6.4016,-1.71529 130.60804,-22.57299 130.60804,-22.57299 z"
         style="display:inline;opacity:0.2;fill:#000000;fill-opacity:1;stroke:none;stroke-width:16;stroke-linecap:round;stroke-linejoin:round;stroke-miterlimit:4;stroke-dasharray:none;stroke-dashoffset:0;stroke-opacity:1;filter:url(#filter1469);enable-background:new"
         transform="rotate(-15,90.582512,216.7248)" />
      <path
         style="display:inline;opacity:1;fill:#ffffff;fill-opacity:1;stroke:none;stroke-width:16;stroke-linecap:round;stroke-linejoin:round;stroke-miterlimit:4;stroke-dasharray:none;stroke-dashoffset:0;stroke-opacity:1;enable-background:new"
         d="m 206.6365,182.63416 c 0,0 -102.57584,73.07858 -108.315358,76.39228 -5.739513,3.31373 -13.078595,1.34723 -16.392301,-4.39228 -3.313715,-5.73951 -1.347215,-13.0786 4.392301,-16.39232 5.739521,-3.31369 120.315358,-55.60768 120.315358,-55.60768 z"
         id="path1038"
         inkscape:connector-curvature="0"
         sodipodi:nodetypes="csssc" />
      <circle
         style="display:inline;opacity:1;fill:#808080;fill-opacity:1;stroke:none;stroke-width:16;stroke-linecap:round;stroke-linejoin:round;stroke-miterlimit:4;stroke-dasharray:none;stroke-dashoffset:0;stroke-opacity:1;enable-background:new"
         id="path1041"
         cx="24.821136"
         cy="264.05957"
         r="4"
         transform="rotate(-15)" />
      <path
         style="display:inline;opacity:0.1;fill:#000000;fill-opacity:1;stroke:none;stroke-width:16;stroke-linecap:round;stroke-linejoin:round;stroke-miterlimit:4;stroke-dasharray:none;stroke-dashoffset:0;stroke-opacity:1;enable-background:new"
         d="m 212.00017,243.99984 a 4,4 0 0 0 -4,4 4,4 0 0 0 4,4 4,4 0 0 0 4,-4 4,4 0 0 0 -4,-4 z"
         id="circle1473"
         inkscape:connector-curvature="0" />
      <path
         sodipodi:nodetypes="scsss"
         id="path2-1"
         d="m 176,95.99842 c 0,35.34751 -63.99865,88.00158 -63.99865,88.00158 0,0 -64.00135,-52.65407 -64.00135,-88.00158 0,-35.34525 28.65442,-63.99842 64.00135,-63.99842 35.34739,0 63.99865,28.65271 63.99865,63.99842 z"
         inkscape:connector-curvature="0"
         style="display:inline;opacity:0.2;fill:#000000;fill-opacity:1;stroke:none;stroke-width:0.452;stroke-miterlimit:4;stroke-dasharray:none;stroke-opacity:1;filter:url(#filter3408);enable-background:new" />
      <path
         sodipodi:nodetypes="scsss"
         id="path2"
         d="m 176,91.99842 c 0,35.34751 -63.99865,88.00158 -63.99865,88.00158 0,0 -64.00135,-52.65407 -64.00135,-88.00158 0,-35.34525 28.65442,-63.99842 64.00135,-63.99842 35.34739,0 63.99865,28.65271 63.99865,63.99842 z"
         inkscape:connector-curvature="0"
         style="display:inline;fill:#e95420;fill-opacity:1;stroke:none;stroke-width:0.452;stroke-miterlimit:4;stroke-dasharray:none;stroke-opacity:1;enable-background:new" />
      <g
         id="g482"
         transform="translate(-1.3200016,-0.51999855)">
        <circle
           class="cls-2"
           cx="76.720001"
           cy="91.279999"
           r="13.4"
           id="circle288"
           style="fill:#ffffff;stroke-width:1" />
        <circle
           class="cls-2"
           cx="132.39999"
           cy="61.919998"
           r="13.4"
           id="circle290"
           style="fill:#ffffff;stroke-width:1" />
        <path
           class="cls-2"
           d="m 106.92,125.68 a 32.32,32.32 0 0 1 -22.2,-17 19.32,19.32 0 0 1 -11.4,1.4 43.48,43.48 0 0 0 31.4,26.32 44,44 0 0 0 9.48,1 18.84,18.84 0 0 1 -4,-11.2 11.56,11.56 0 0 1 -3.28,-0.52 z"
           id="path292"
           style="fill:#ffffff;stroke-width:1" />
        <circle
           class="cls-2"
           cx="129.39999"
           cy="125.8"
           r="13.4"
           id="circle294"
           style="fill:#ffffff;stroke-width:1" />
        <path
           class="cls-2"
           d="m 148,120.92 a 44,44 0 0 0 2.2,-51.32 19.4,19.4 0 0 1 -7.52,8.8 32.88,32.88 0 0 1 3.12,22.2 32.32,32.32 0 0 1 -4.2,10.4 18.32,18.32 0 0 1 6.4,9.92 z"
           id="path296"
           style="fill:#ffffff;stroke-width:1" />
        <path
           class="cls-2"
           d="m 75.6,72 h 1 a 18.6,18.6 0 0 1 4,0.4 19.36,19.36 0 0 1 6.08,2.52 32.48,32.48 0 0 1 26.32,-14.08 25.68,25.68 0 0 1 0.4,-3 18.52,18.52 0 0 1 3.68,-7.8 44,44 0 0 0 -41.48,21.96 z"
           id="path298"
           style="fill:#ffffff;stroke-width:1" />
      </g>
    </g>
  </g>
</svg>
