<?xml version="1.0" encoding="UTF-8" standalone="no"?>
<svg
   inkscape:export-ydpi="96"
   inkscape:export-xdpi="96"
   width="64"
   height="64"
   id="svg11300"
   sodipodi:version="0.32"
   inkscape:version="1.1.2 (76b9e6a115, 2022-02-25)"
   sodipodi:docname="ubiquity-64x64.svg"
   inkscape:output_extension="org.inkscape.output.svg.inkscape"
   version="1.0"
   style="display:inline;enable-background:new"
   inkscape:export-filename="/home/stuart/Pictures/disk.png"
   xmlns:inkscape="http://www.inkscape.org/namespaces/inkscape"
   xmlns:sodipodi="http://sodipodi.sourceforge.net/DTD/sodipodi-0.dtd"
   xmlns:xlink="http://www.w3.org/1999/xlink"
   xmlns="http://www.w3.org/2000/svg"
   xmlns:svg="http://www.w3.org/2000/svg"
   xmlns:rdf="http://www.w3.org/1999/02/22-rdf-syntax-ns#"
   xmlns:cc="http://creativecommons.org/ns#"
   xmlns:dc="http://purl.org/dc/elements/1.1/">
  <title
     id="title3004">Suru Icon Theme Template</title>
  <sodipodi:namedview
     stroke="#ef2929"
     fill="#f57900"
     id="base"
     pagecolor="#ffffff"
     bordercolor="#000000"
     borderopacity="0.25490196"
     inkscape:pageopacity="0"
     inkscape:pageshadow="2"
     inkscape:zoom="11.313708"
     inkscape:cx="57.850174"
     inkscape:cy="35.355339"
     inkscape:current-layer="layer7"
     showgrid="false"
     inkscape:grid-bbox="true"
     inkscape:document-units="px"
     inkscape:showpageshadow="false"
     inkscape:window-width="1920"
     inkscape:window-height="1043"
     inkscape:window-x="1920"
     inkscape:window-y="0"
     width="400px"
     height="300px"
     inkscape:snap-nodes="true"
     inkscape:snap-bbox="true"
     gridtolerance="10000"
     inkscape:object-nodes="true"
     inkscape:snap-grids="true"
     showguides="true"
     inkscape:guide-bbox="true"
     inkscape:window-maximized="1"
     inkscape:bbox-paths="true"
     inkscape:snap-bbox-midpoints="true"
     inkscape:snap-global="true"
     inkscape:object-paths="true"
     inkscape:snap-intersection-paths="true"
     inkscape:snap-smooth-nodes="true"
     inkscape:pagecheckerboard="false"
     showborder="true"
     inkscape:document-rotation="0"
     fit-margin-top="0"
     fit-margin-left="0"
     fit-margin-right="0"
     fit-margin-bottom="0"
     inkscape:snap-page="true">
    <inkscape:grid
       spacingy="1"
       spacingx="1"
       id="grid5883"
       type="xygrid"
       enabled="true"
       visible="true"
       empspacing="4"
       snapvisiblegridlinesonly="true"
       originx="-24"
       originy="-28" />
    <inkscape:grid
       type="xygrid"
       id="grid11592"
       empspacing="2"
       visible="true"
       enabled="false"
       spacingx="0.5"
       spacingy="0.5"
       color="#ff0000"
       opacity="0.1254902"
       empcolor="#ff0000"
       empopacity="0.25098039"
       snapvisiblegridlinesonly="true"
       originx="-24"
       originy="-28" />
  </sodipodi:namedview>
  <defs
     id="defs3">
    <filter
       inkscape:collect="always"
       style="color-interpolation-filters:sRGB"
       id="filter4346"
       x="-0.014454287"
       width="1.0289086"
       y="-0.011357288"
       height="1.0227146">
      <feGaussianBlur
         inkscape:collect="always"
         stdDeviation="2.120027"
         id="feGaussianBlur4348" />
    </filter>
    <linearGradient
       inkscape:collect="always"
       xlink:href="#linearGradient4360"
       id="linearGradient4358"
       x1="88"
       y1="88"
       x2="488"
       y2="488"
       gradientUnits="userSpaceOnUse" />
    <linearGradient
       id="linearGradient4360"
       inkscape:collect="always">
      <stop
         id="stop4362"
         offset="0"
         style="stop-color:#000000;stop-opacity:0.58823532" />
      <stop
         style="stop-color:#000000;stop-opacity:0"
         offset="0.88"
         id="stop4364" />
      <stop
         id="stop4366"
         offset="1"
         style="stop-color:#000000;stop-opacity:1" />
    </linearGradient>
    <filter
       inkscape:collect="always"
       style="color-interpolation-filters:sRGB"
       id="filter4380"
       x="-0.057817147"
       width="1.1156343"
       y="-0.045429151"
       height="1.0908583">
      <feGaussianBlur
         inkscape:collect="always"
         stdDeviation="8.4801079"
         id="feGaussianBlur4382" />
    </filter>
    <linearGradient
       gradientUnits="userSpaceOnUse"
       y2="169.65668"
       x2="4.4137931"
       y1="386.29544"
       x1="494.34482"
       id="linearGradient4226"
       xlink:href="#linearGradient876"
       inkscape:collect="always"
       gradientTransform="matrix(0,-0.11328125,-0.11327801,0,87.48925,88)" />
    <clipPath
       clipPathUnits="userSpaceOnUse"
       id="clipPath994">
      <path
         style="color:#000000;display:inline;overflow:visible;visibility:visible;fill:#cdcdcd;fill-opacity:1;fill-rule:nonzero;stroke:none;stroke-width:2;stroke-miterlimit:4;stroke-dasharray:none;stroke-opacity:1;marker:none;enable-background:accumulate"
         d="m 335.73108,62 c -8.82418,0 -9.77365,0.90635 -9.7304,9.74838 v 12.25162 12.25162 c -0.0433,8.84203 0.90622,9.74838 9.7304,9.74838 h 16.53919 c 8.82418,0 9.7304,-0.90625 9.7304,-9.74838 v -12.25162 -12.25162 c 0,-8.84213 -0.90622,-9.74838 -9.7304,-9.74838 z"
         id="path996"
         inkscape:connector-curvature="0"
         sodipodi:nodetypes="scccssscsss" />
    </clipPath>
    <clipPath
       clipPathUnits="userSpaceOnUse"
       id="clipPath971">
      <path
         style="color:#000000;display:inline;overflow:visible;visibility:visible;opacity:1;fill:#46a926;fill-opacity:1;fill-rule:nonzero;stroke:none;stroke-width:2;stroke-miterlimit:4;stroke-dasharray:none;stroke-opacity:1;marker:none;enable-background:accumulate"
         d="m 327.8652,189 c -4.41209,0 -4.88682,0.45318 -4.8652,4.87419 v 6.12581 6.12581 c -0.0217,4.42101 0.45311,4.87419 4.8652,4.87419 h 8.2696 c 4.41209,0 4.8652,-0.45312 4.8652,-4.87419 v -6.12581 -6.12581 c 0,-4.42106 -0.45312,-4.87419 -4.86521,-4.87419 z"
         id="path973"
         inkscape:connector-curvature="0"
         sodipodi:nodetypes="scccssscsss" />
    </clipPath>
    <clipPath
       clipPathUnits="userSpaceOnUse"
       id="clipPath983">
      <path
         sodipodi:nodetypes="scccssscsss"
         inkscape:connector-curvature="0"
         id="path985"
         d="m 325.09646,237 c -2.80769,0 -3.10979,0.28839 -3.09603,3.10176 v 3.89824 3.89824 c -0.0138,2.81337 0.28834,3.10176 3.09603,3.10176 h 5.8075 c 2.8077,0 3.09604,-0.28835 3.09604,-3.10176 v -3.89824 -3.89824 c 0,-2.8134 -0.28835,-3.10176 -3.09604,-3.10176 z"
         style="color:#000000;display:inline;overflow:visible;visibility:visible;opacity:1;fill:#46a926;fill-opacity:1;fill-rule:nonzero;stroke:none;stroke-width:2;stroke-miterlimit:4;stroke-dasharray:none;stroke-opacity:1;marker:none;enable-background:accumulate" />
    </clipPath>
    <clipPath
       clipPathUnits="userSpaceOnUse"
       id="clipPath994-1">
      <path
         style="color:#000000;display:inline;overflow:visible;visibility:visible;fill:#cdcdcd;fill-opacity:1;fill-rule:nonzero;stroke:none;stroke-width:2;stroke-miterlimit:4;stroke-dasharray:none;stroke-opacity:1;marker:none;enable-background:accumulate"
         d="m 335.73108,62 c -8.82418,0 -9.77365,0.90635 -9.7304,9.74838 v 12.25162 12.25162 c -0.0433,8.84203 0.90622,9.74838 9.7304,9.74838 h 16.53919 c 8.82418,0 9.7304,-0.90625 9.7304,-9.74838 v -12.25162 -12.25162 c 0,-8.84213 -0.90622,-9.74838 -9.7304,-9.74838 z"
         id="path996-8"
         inkscape:connector-curvature="0"
         sodipodi:nodetypes="scccssscsss" />
    </clipPath>
    <linearGradient
       inkscape:collect="always"
       id="linearGradient876">
      <stop
         style="stop-color:#b3b3b3;stop-opacity:1"
         offset="0"
         id="stop872" />
      <stop
         style="stop-color:#d9d9d9;stop-opacity:1"
         offset="1"
         id="stop874" />
    </linearGradient>
    <linearGradient
       inkscape:collect="always"
       id="linearGradient1392">
      <stop
         style="stop-color:#e6e6e6;stop-opacity:1;"
         offset="0"
         id="stop1388" />
      <stop
         style="stop-color:#f2f2f2;stop-opacity:1"
         offset="1"
         id="stop1390" />
    </linearGradient>
    <filter
       inkscape:collect="always"
       style="color-interpolation-filters:sRGB"
       id="filter1469"
       x="-0.039928033"
       width="1.0798561"
       y="-0.12065239"
       height="1.2413048">
      <feGaussianBlur
         inkscape:collect="always"
         stdDeviation="2.3209033"
         id="feGaussianBlur1471" />
    </filter>
    <filter
       inkscape:collect="always"
       style="color-interpolation-filters:sRGB"
       id="filter1422"
       x="-0.06"
       width="1.12"
       y="-0.059999993"
       height="1.12">
      <feGaussianBlur
         inkscape:collect="always"
         stdDeviation="3.75"
         id="feGaussianBlur1424" />
    </filter>
    <linearGradient
       inkscape:collect="always"
       xlink:href="#linearGradient980"
       id="linearGradient982"
       x1="152"
       y1="124"
       x2="152"
       y2="236"
       gradientUnits="userSpaceOnUse" />
    <linearGradient
       inkscape:collect="always"
       id="linearGradient980">
      <stop
         style="stop-color:#000000;stop-opacity:1;"
         offset="0"
         id="stop976" />
      <stop
         style="stop-color:#000000;stop-opacity:0;"
         offset="1"
         id="stop978" />
    </linearGradient>
    <clipPath
       clipPathUnits="userSpaceOnUse"
       id="clipPath999">
      <path
         inkscape:connector-curvature="0"
         style="color:#000000;display:inline;overflow:visible;visibility:visible;opacity:1;fill:#5d5d5d;fill-opacity:1;fill-rule:nonzero;stroke:none;stroke-width:3.826;stroke-linecap:butt;stroke-linejoin:round;stroke-miterlimit:4;stroke-dasharray:none;stroke-dashoffset:0;stroke-opacity:1;marker:none;enable-background:accumulate"
         d="m 152,68 c -48.60106,0 -88,39.39894 -88,88 0,48.60106 39.39894,88 88,88 48.60106,0 88,-39.39894 88,-88 0,-48.60106 -39.39894,-88 -88,-88 z"
         id="path1001"
         sodipodi:nodetypes="sssss" />
    </clipPath>
    <filter
       inkscape:collect="always"
       style="color-interpolation-filters:sRGB"
       id="filter1003"
       x="-0.185"
       width="1.37"
       y="-0.185"
       height="1.37">
      <feGaussianBlur
         inkscape:collect="always"
         stdDeviation="4.4"
         id="feGaussianBlur1005" />
    </filter>
    <linearGradient
       inkscape:collect="always"
       xlink:href="#linearGradient1392"
       id="linearGradient2529"
       gradientUnits="userSpaceOnUse"
       gradientTransform="matrix(0,0.23666662,-0.23666662,0,92.92003,20.026632)"
       x1="77"
       y1="156"
       x2="227"
       y2="156" />
    <filter
       inkscape:collect="always"
       style="color-interpolation-filters:sRGB"
       id="filter1315"
       x="-0.052499999"
       y="-0.044210526"
       width="1.105"
       height="1.0884211">
      <feGaussianBlur
         inkscape:collect="always"
         stdDeviation="0.7"
         id="feGaussianBlur1317" />
    </filter>
  </defs>
  <metadata
     id="metadata4">
    <rdf:RDF>
      <cc:Work
         rdf:about="">
        <dc:format>image/svg+xml</dc:format>
        <dc:type
           rdf:resource="http://purl.org/dc/dcmitype/StillImage" />
        <dc:creator>
          <cc:Agent>
            <dc:title>Sam Hewitt</dc:title>
          </cc:Agent>
        </dc:creator>
        <dc:source />
        <cc:license
           rdf:resource="http://creativecommons.org/licenses/by-sa/4.0/" />
        <dc:title>Suru Icon Theme Template</dc:title>
        <dc:subject>
          <rdf:Bag />
        </dc:subject>
        <dc:date />
        <dc:rights>
          <cc:Agent>
            <dc:title />
          </cc:Agent>
        </dc:rights>
        <dc:publisher>
          <cc:Agent>
            <dc:title />
          </cc:Agent>
        </dc:publisher>
        <dc:identifier />
        <dc:relation />
        <dc:language />
        <dc:coverage />
        <dc:description />
        <dc:contributor>
          <cc:Agent>
            <dc:title />
          </cc:Agent>
        </dc:contributor>
      </cc:Work>
      <cc:Work
         rdf:about="">
        <dc:format>image/svg+xml</dc:format>
        <dc:type
           rdf:resource="http://purl.org/dc/dcmitype/StillImage" />
      </cc:Work>
      <cc:License
         rdf:about="http://creativecommons.org/licenses/by-sa/4.0/">
        <cc:permits
           rdf:resource="http://creativecommons.org/ns#Reproduction" />
        <cc:permits
           rdf:resource="http://creativecommons.org/ns#Distribution" />
        <cc:requires
           rdf:resource="http://creativecommons.org/ns#Notice" />
        <cc:requires
           rdf:resource="http://creativecommons.org/ns#Attribution" />
        <cc:permits
           rdf:resource="http://creativecommons.org/ns#DerivativeWorks" />
        <cc:requires
           rdf:resource="http://creativecommons.org/ns#ShareAlike" />
      </cc:License>
    </rdf:RDF>
  </metadata>
  <g
     style="display:inline"
     inkscape:groupmode="layer"
     inkscape:label="Icon"
     id="layer1"
     transform="translate(-24,-28)">
    <g
       style="display:inline"
       inkscape:label="Baseplate"
       id="layer7"
       inkscape:groupmode="layer" />
    <g
       inkscape:groupmode="layer"
       id="layer8"
       inkscape:label="Backgrounds"
       style="display:inline">
      <path
         style="color:#000000;display:inline;overflow:visible;visibility:visible;opacity:0.1;fill:#000000;fill-opacity:1;fill-rule:nonzero;stroke:none;stroke-width:8;marker:none;filter:url(#filter4346);enable-background:accumulate"
         d="m 189.84323,74 c -70.59344,0 -78.18921,7.250835 -77.84323,77.98706 v 146.01294 146.01294 c -0.34598,70.73623 7.24979,77.98706 77.84323,77.98706 h 196.31354 c 70.59344,0 76.00668,-7.27384 77.84323,-77.98706 v -146.01294 -146.01294 c 0,-70.737067 -7.24979,-77.98706 -77.84323,-77.98706 z"
         id="rect4158-9"
         inkscape:connector-curvature="0"
         sodipodi:nodetypes="scccssscsss"
         transform="matrix(0.125,0,0,0.125,20,23)" />
      <path
         sodipodi:nodetypes="scccssscsss"
         inkscape:connector-curvature="0"
         id="path4350"
         d="m 189.84323,74 c -70.59344,0 -78.18921,7.250835 -77.84323,77.98706 v 146.01294 146.01294 c -0.34598,70.73623 7.24979,77.98706 77.84323,77.98706 h 196.31354 c 70.59344,0 77.84323,-7.24999 77.84323,-77.98706 v -146.01294 -146.01294 c 0,-70.737067 -7.24979,-77.98706 -77.84323,-77.98706 z"
         style="color:#000000;display:inline;overflow:visible;visibility:visible;opacity:0.3;fill:url(#linearGradient4358);fill-opacity:1;fill-rule:nonzero;stroke:none;stroke-width:8;marker:none;filter:url(#filter4380);enable-background:accumulate"
         transform="matrix(0.125,0,0,0.125,20,23)" />
      <path
         style="color:#000000;display:inline;overflow:visible;visibility:visible;opacity:0.1;fill:#000000;fill-opacity:1;fill-rule:nonzero;stroke:none;stroke-width:1.02029;marker:none;enable-background:accumulate"
         d="m 43.4529,31.5 c -9.024703,0 -9.995751,0.922539 -9.95152,9.92246 v 18.57754 18.57754 c -0.04423,8.999922 0.926817,9.92246 9.95152,9.92246 h 25.09683 c 9.024702,0 9.95152,-0.922433 9.95152,-9.92246 v -18.57754 -18.57754 c 0,-9.000028 -0.926818,-9.92246 -9.95152,-9.92246 z"
         id="rect4158-7"
         inkscape:connector-curvature="0"
         sodipodi:nodetypes="scccssscsss" />
      <path
         style="color:#000000;display:inline;overflow:visible;visibility:visible;fill:url(#linearGradient4226);fill-opacity:1;fill-rule:nonzero;stroke:none;stroke-width:1;marker:none;enable-background:accumulate"
         d="m 68.268245,32 c 8.824182,0 9.773653,0.906354 9.730405,9.748382 v 18.251618 18.251617 c 0.04325,8.84203 -0.906223,9.748383 -9.730405,9.748383 h -24.53919 c -8.824179,0 -9.730404,-0.90625 -9.730404,-9.748382 v -18.251618 -18.251617 c 0,-8.842134 0.906225,-9.748383 9.730404,-9.748383 z"
         id="rect4158"
         inkscape:connector-curvature="0"
         sodipodi:nodetypes="scccssscsss" />
      <path
         style="color:#000000;display:inline;overflow:visible;visibility:visible;opacity:0.3;fill:#ffffff;fill-opacity:1;fill-rule:nonzero;stroke:none;stroke-width:1;marker:none;enable-background:accumulate"
         d="m 43.73047,32 c -8.824182,0 -9.773718,0.906507 -9.73047,9.748535 v 0.5 c -0.04325,-8.842028 0.906288,-9.748535 9.73047,-9.748535 h 24.53906 c 8.824183,0 9.73047,0.906402 9.73047,9.748535 v -0.5 c 0,-8.842133 -0.906287,-9.748535 -9.73047,-9.748535 z"
         id="path931"
         inkscape:connector-curvature="0" />
      <path
         style="color:#000000;display:inline;overflow:visible;visibility:visible;opacity:0.2;fill:#ffffff;fill-opacity:1;fill-rule:nonzero;stroke:none;stroke-width:1;marker:none;enable-background:accumulate"
         d="m 33.998535,60 v 18.251465 c 0,8.842133 0.90629,9.748535 9.73047,9.748535 h 24.539062 c 8.824183,0 9.773715,-0.906505 9.730468,-9.748535 v -18.251465 z"
         id="rect4158-8"
         inkscape:connector-curvature="0" />
      <path
         style="color:#000000;display:inline;overflow:visible;visibility:visible;opacity:0.2;fill:#ffffff;fill-opacity:1;fill-rule:nonzero;stroke:none;stroke-width:1;marker:none;enable-background:accumulate"
         d="m 56,32 v 56 h 12.268067 c 8.824183,0 9.773715,-0.906505 9.730468,-9.748535 v -18.251465 -18.251465 c 0.04325,-8.842028 -0.906285,-9.748535 -9.730468,-9.748535 z"
         id="rect4158-3"
         inkscape:connector-curvature="0" />
      <path
         style="color:#000000;display:inline;overflow:visible;visibility:visible;opacity:0.2;fill:#000000;fill-opacity:1;fill-rule:nonzero;stroke:none;stroke-width:1;marker:none;enable-background:accumulate"
         d="m 43.73182,88 c -8.824183,0 -9.773719,-0.906508 -9.730471,-9.748535 v -0.5 c -0.04325,8.842027 0.906288,9.748535 9.730471,9.748535 h 24.53906 c 8.824182,0 9.73047,-0.906402 9.73047,-9.748535 v 0.5 c 0,8.842133 -0.906287,9.748535 -9.73047,9.748535 z"
         id="path931-8"
         inkscape:connector-curvature="0" />
    </g>
    <g
       inkscape:groupmode="layer"
       id="layer6"
       inkscape:label="Pictograms"
       style="display:inline">
      <circle
         style="color:#000000;display:inline;overflow:visible;visibility:visible;opacity:1;fill:#5d5d5d;fill-opacity:1;fill-rule:nonzero;stroke:none;stroke-width:3.8261;stroke-linecap:butt;stroke-linejoin:miter;stroke-miterlimit:4;stroke-dasharray:11.4783, 11.4783;stroke-dashoffset:0;stroke-opacity:1;marker:none;enable-background:accumulate"
         id="path4238"
         cx="56.000042"
         cy="-55.999958"
         transform="scale(1,-1)"
         r="20" />
      <path
         style="color:#000000;display:inline;overflow:visible;visibility:visible;opacity:0.05;fill:#000000;fill-opacity:1;fill-rule:nonzero;stroke:none;stroke-width:3.8261;stroke-linecap:butt;stroke-linejoin:miter;stroke-miterlimit:4;stroke-dasharray:11.4783, 11.4783;stroke-dashoffset:0;stroke-opacity:1;marker:none;enable-background:accumulate"
         d="m 36.000042,55.99996 a 20,20 0 0 1 20,-20.000004 20,20 0 0 1 20.000001,20.000004 z"
         id="circle1007"
         inkscape:connector-curvature="0" />
      <path
         transform="matrix(0.22727273,0,0,0.22727273,21.454585,20.545454)"
         style="color:#000000;display:inline;overflow:visible;visibility:visible;opacity:0.2;fill:none;fill-opacity:1;fill-rule:nonzero;stroke:url(#linearGradient982);stroke-width:44;stroke-linecap:butt;stroke-linejoin:round;stroke-miterlimit:4;stroke-dasharray:none;stroke-dashoffset:0;stroke-opacity:1;marker:none;filter:url(#filter1003);enable-background:accumulate"
         d="m 152,70 c -48.60106,0 -88,39.39894 -88,88 0,48.60106 39.39894,88 88,88 48.60106,0 88,-39.39894 88,-88 0,-48.60106 -39.39894,-88 -88,-88 z"
         id="path962"
         clip-path="url(#clipPath999)"
         inkscape:connector-curvature="0"
         sodipodi:nodetypes="sssss" />
      <path
         sodipodi:nodetypes="sssss"
         inkscape:connector-curvature="0"
         id="path1414"
         d="m 152.00017,216.99984 c -41.42135,0 -75,-33.57864 -75,-75 0,-41.42136 33.57865,-75.000018 75,-75.000018 41.42135,0 75,33.578658 75,75.000018 0,41.42136 -33.57865,75 -75,75 z"
         style="display:inline;opacity:0.2;fill:#000000;fill-opacity:1;stroke:none;stroke-width:64;stroke-linecap:round;stroke-linejoin:round;stroke-miterlimit:4;stroke-dasharray:none;stroke-dashoffset:0;stroke-opacity:1;filter:url(#filter1422);enable-background:new"
         transform="matrix(0.25,0,0,0.25,18,21)" />
      <path
         style="display:inline;opacity:1;fill:url(#linearGradient2529);fill-opacity:1;stroke:none;stroke-width:16;stroke-linecap:round;stroke-linejoin:round;stroke-miterlimit:4;stroke-dasharray:none;stroke-dashoffset:0;stroke-opacity:1;enable-background:new"
         d="m 56.000037,73.749957 c -9.803052,0 -17.749997,-7.946942 -17.749997,-17.749997 0,-9.803052 7.946945,-17.749996 17.749997,-17.749996 9.803051,0 17.749996,7.946944 17.749996,17.749996 0,9.803055 -7.946945,17.749997 -17.749996,17.749997 z"
         id="path949"
         inkscape:connector-curvature="0"
         sodipodi:nodetypes="sssss" />
      <path
         style="opacity:0.7;fill:#e95420;fill-opacity:1;stroke:none;stroke-width:0.25;stroke-linecap:round;stroke-linejoin:round;stroke-miterlimit:4;stroke-dasharray:none;stroke-opacity:1"
         d="m 55.924805,42.003906 a 14,14 0 0 0 -13.924805,13.996094 14,14 0 0 0 14,14 14,14 0 0 0 14,-14 14,14 0 0 0 -1.492675,-6.253905 l -1.777833,0.88916 a 12,12 0 0 1 1.270508,5.364745 12,12 0 0 1 -12,12 12,12 0 0 1 -12,-12 12,12 0 0 1 11.935547,-11.997558 z"
         id="path3202" />
      <ellipse
         style="display:inline;opacity:0.05;fill:#000000;fill-opacity:1;stroke:none;stroke-width:16;stroke-linecap:round;stroke-linejoin:round;stroke-miterlimit:4;stroke-dasharray:none;stroke-dashoffset:0;stroke-opacity:1;enable-background:new"
         id="ellipse971"
         cx="56.000019"
         cy="55.99987"
         rx="8"
         ry="8.0000019" />
      <ellipse
         ry="5.000001"
         rx="5"
         cy="55.99987"
         cx="56.000019"
         id="ellipse966"
         style="display:inline;opacity:1;fill:#ffffff;fill-opacity:1;stroke:none;stroke-width:16;stroke-linecap:round;stroke-linejoin:round;stroke-miterlimit:4;stroke-dasharray:none;stroke-dashoffset:0;stroke-opacity:1;enable-background:new" />
      <g
         id="g1374"
         style="opacity:0.1;fill:#000000;fill-opacity:1;stroke-width:4"
         transform="matrix(0.25,0,0,0.25,18.00004,16.999957)">
        <circle
           transform="rotate(-30)"
           r="2"
           cy="185.09996"
           cx="53.63586"
           id="path973-2"
           style="opacity:1;fill:#000000;fill-opacity:1;stroke:none;stroke-width:64;stroke-linecap:round;stroke-linejoin:round;stroke-miterlimit:4;stroke-dasharray:none;stroke-dashoffset:0;stroke-opacity:1" />
        <circle
           transform="rotate(-30)"
           style="opacity:1;fill:#000000;fill-opacity:1;stroke:none;stroke-width:64;stroke-linecap:round;stroke-linejoin:round;stroke-miterlimit:4;stroke-dasharray:none;stroke-dashoffset:0;stroke-opacity:1"
           id="circle975"
           cx="53.63586"
           cy="237.09996"
           r="2" />
        <circle
           transform="rotate(-60)"
           style="opacity:1;fill:#000000;fill-opacity:1;stroke:none;stroke-width:64;stroke-linecap:round;stroke-linejoin:round;stroke-miterlimit:4;stroke-dasharray:none;stroke-dashoffset:0;stroke-opacity:1"
           id="circle1308"
           cx="-59.099964"
           cy="183.63586"
           r="2" />
        <circle
           transform="rotate(-60)"
           r="2"
           cy="235.63586"
           cx="-59.099964"
           id="circle1310"
           style="opacity:1;fill:#000000;fill-opacity:1;stroke:none;stroke-width:64;stroke-linecap:round;stroke-linejoin:round;stroke-miterlimit:4;stroke-dasharray:none;stroke-dashoffset:0;stroke-opacity:1" />
        <circle
           transform="rotate(-90)"
           r="2"
           cy="126"
           cx="-156"
           id="circle1314"
           style="opacity:1;fill:#000000;fill-opacity:1;stroke:none;stroke-width:64;stroke-linecap:round;stroke-linejoin:round;stroke-miterlimit:4;stroke-dasharray:none;stroke-dashoffset:0;stroke-opacity:1" />
        <circle
           transform="rotate(-90)"
           style="opacity:1;fill:#000000;fill-opacity:1;stroke:none;stroke-width:64;stroke-linecap:round;stroke-linejoin:round;stroke-miterlimit:4;stroke-dasharray:none;stroke-dashoffset:0;stroke-opacity:1"
           id="circle1316"
           cx="-156"
           cy="178"
           r="2" />
        <circle
           transform="rotate(-120)"
           style="opacity:1;fill:#000000;fill-opacity:1;stroke:none;stroke-width:64;stroke-linecap:round;stroke-linejoin:round;stroke-miterlimit:4;stroke-dasharray:none;stroke-dashoffset:0;stroke-opacity:1"
           id="circle1320"
           cx="-211.09996"
           cy="27.63586"
           r="2" />
        <circle
           transform="rotate(-120)"
           r="2"
           cy="79.635864"
           cx="-211.09996"
           id="circle1322"
           style="opacity:1;fill:#000000;fill-opacity:1;stroke:none;stroke-width:64;stroke-linecap:round;stroke-linejoin:round;stroke-miterlimit:4;stroke-dasharray:none;stroke-dashoffset:0;stroke-opacity:1" />
        <circle
           style="display:inline;opacity:1;fill:#000000;fill-opacity:1;stroke:none;stroke-width:64;stroke-linecap:round;stroke-linejoin:round;stroke-miterlimit:4;stroke-dasharray:none;stroke-dashoffset:0;stroke-opacity:1;enable-background:new"
           id="circle1326"
           cx="152"
           cy="130"
           r="2"
           transform="rotate(-150,152,156)" />
        <circle
           r="2"
           cy="182"
           cx="152"
           id="circle1328"
           style="display:inline;opacity:1;fill:#000000;fill-opacity:1;stroke:none;stroke-width:64;stroke-linecap:round;stroke-linejoin:round;stroke-miterlimit:4;stroke-dasharray:none;stroke-dashoffset:0;stroke-opacity:1;enable-background:new"
           transform="rotate(-150,152,156)" />
        <circle
           transform="scale(-1)"
           style="opacity:1;fill:#000000;fill-opacity:1;stroke:none;stroke-width:64;stroke-linecap:round;stroke-linejoin:round;stroke-miterlimit:4;stroke-dasharray:none;stroke-dashoffset:0;stroke-opacity:1"
           id="circle1332"
           cx="-152"
           cy="-182"
           r="2" />
        <circle
           transform="scale(-1)"
           r="2"
           cy="-130"
           cx="-152"
           id="circle1334"
           style="opacity:1;fill:#000000;fill-opacity:1;stroke:none;stroke-width:64;stroke-linecap:round;stroke-linejoin:round;stroke-miterlimit:4;stroke-dasharray:none;stroke-dashoffset:0;stroke-opacity:1" />
      </g>
      <ellipse
         style="display:inline;opacity:0.1;fill:#000000;fill-opacity:1;stroke:none;stroke-width:16;stroke-linecap:round;stroke-linejoin:round;stroke-miterlimit:4;stroke-dasharray:none;stroke-dashoffset:0;stroke-opacity:1;enable-background:new"
         id="ellipse1434"
         cx="56.000019"
         cy="55.99987"
         rx="4"
         ry="4.000001" />
      <ellipse
         style="display:inline;opacity:1;fill:#888888;fill-opacity:1;stroke:none;stroke-width:16;stroke-linecap:round;stroke-linejoin:round;stroke-miterlimit:4;stroke-dasharray:none;stroke-dashoffset:0;stroke-opacity:1;enable-background:new"
         id="ellipse1438"
         cx="56.00013"
         cy="55.999989"
         rx="1"
         ry="1.0000002" />
      <path
         inkscape:connector-curvature="0"
         style="display:inline;opacity:0.5;fill:#ffffff;fill-opacity:1;stroke:none;stroke-width:16;stroke-linecap:round;stroke-linejoin:round;stroke-miterlimit:4;stroke-dasharray:none;stroke-dashoffset:0;stroke-opacity:1;enable-background:new"
         d="m 56.00004,38.249963 c -9.803053,0 -17.749998,7.946947 -17.749998,17.75 0,0.07938 0.005,0.157537 0.006,0.236667 0.127258,-9.693465 8.020315,-17.513334 17.74399,-17.513334 9.72367,0 17.616725,7.819869 17.743988,17.513334 10e-4,-0.07913 0.006,-0.157287 0.006,-0.236667 0,-9.803053 -7.946945,-17.75 -17.749998,-17.75 z"
         id="path1446" />
      <path
         style="display:inline;opacity:0.1;fill:#000000;fill-opacity:1;stroke:none;stroke-width:16;stroke-linecap:round;stroke-linejoin:round;stroke-miterlimit:4;stroke-dasharray:none;stroke-dashoffset:0;stroke-opacity:1;enable-background:new"
         d="m 41.000042,35.999955 a 1,1 0 0 0 -1,1 1,1 0 0 0 1,1 1,1 0 0 0 1,-1 1,1 0 0 0 -1,-1 z"
         id="path2571"
         inkscape:connector-curvature="0" />
      <path
         style="display:inline;opacity:0.1;fill:#000000;fill-opacity:1;stroke:none;stroke-width:16;stroke-linecap:round;stroke-linejoin:round;stroke-miterlimit:4;stroke-dasharray:none;stroke-dashoffset:0;stroke-opacity:1;enable-background:new"
         d="m 71.000043,35.999955 a 1,1 0 0 0 -1,1 1,1 0 0 0 1,1 1,1 0 0 0 1,-1 1,1 0 0 0 -1,-1 z"
         id="path2569"
         inkscape:connector-curvature="0" />
      <path
         sodipodi:nodetypes="csssc"
         inkscape:connector-curvature="0"
         id="path1467"
         d="m 211.50536,215.83276 c 0,0 -117.99478,44.0399 -124.39638,45.7552 -6.4016,1.71532 -12.98164,-2.08367 -14.69694,-8.48526 -1.71531,-6.40159 2.08368,-12.98164 8.48528,-14.69695 6.4016,-1.71529 130.60804,-22.57299 130.60804,-22.57299 z"
         style="display:inline;opacity:0.2;fill:#000000;fill-opacity:1;stroke:none;stroke-width:64;stroke-linecap:round;stroke-linejoin:round;stroke-miterlimit:4;stroke-dasharray:none;stroke-dashoffset:0;stroke-opacity:1;filter:url(#filter1469);enable-background:new"
         transform="matrix(0.24148146,-0.06470476,0.06470476,0.24148146,4.7485046,28.707299)" />
      <path
         style="display:inline;opacity:1;fill:#ffffff;fill-opacity:1;stroke:none;stroke-width:16;stroke-linecap:round;stroke-linejoin:round;stroke-miterlimit:4;stroke-dasharray:none;stroke-dashoffset:0;stroke-opacity:1;enable-background:new"
         d="m 69.659125,66.65854 c 0,0 -25.64396,18.269645 -27.078839,19.09807 -1.434879,0.828432 -3.269649,0.336807 -4.098076,-1.09807 -0.828429,-1.434878 -0.336804,-3.26965 1.098076,-4.09808 1.43488,-0.828423 30.078839,-13.90192 30.078839,-13.90192 z"
         id="path1038"
         inkscape:connector-curvature="0"
         sodipodi:nodetypes="csssc" />
      <circle
         style="display:inline;opacity:1;fill:#808080;fill-opacity:1;stroke:none;stroke-width:16;stroke-linecap:round;stroke-linejoin:round;stroke-miterlimit:4;stroke-dasharray:none;stroke-dashoffset:0;stroke-opacity:1;enable-background:new"
         id="path1041"
         cx="18.15675"
         cy="90.958076"
         transform="rotate(-15)"
         r="1" />
      <path
         style="display:inline;opacity:0.1;fill:#000000;fill-opacity:1;stroke:none;stroke-width:16;stroke-linecap:round;stroke-linejoin:round;stroke-miterlimit:4;stroke-dasharray:none;stroke-dashoffset:0;stroke-opacity:1;enable-background:new"
         d="m 71.000043,81.99996 a 1,1 0 0 0 -1,1 1,1 0 0 0 1,1 1,1 0 0 0 1,-1 1,1 0 0 0 -1,-1 z"
         id="circle1473"
         inkscape:connector-curvature="0" />
      <path
         sodipodi:nodetypes="scsss"
         id="path2-1"
         d="m 62,44.999605 c 0,8.836878 -15.999663,22.000395 -15.999663,22.000395 0,0 -16.000337,-13.163517 -16.000337,-22.000395 0,-8.836313 7.163605,-15.999605 16.000337,-15.999605 8.836848,0 15.999663,7.163177 15.999663,15.999605 z"
         inkscape:connector-curvature="0"
         style="display:inline;opacity:0.2;fill:#000000;fill-opacity:1;stroke:none;stroke-width:0.452;stroke-miterlimit:4;stroke-dasharray:none;stroke-opacity:1;enable-background:new;filter:url(#filter1315)" />
      <path
         sodipodi:nodetypes="scsss"
         id="path2"
         d="m 62,43.999605 c 0,8.836878 -15.999663,22.000395 -15.999663,22.000395 0,0 -16.000337,-13.163517 -16.000337,-22.000395 0,-8.836313 7.163605,-15.999605 16.000337,-15.999605 8.836848,0 15.999663,7.163177 15.999663,15.999605 z"
         inkscape:connector-curvature="0"
         style="display:inline;fill:#e95420;fill-opacity:1;stroke:none;stroke-width:0.452;stroke-miterlimit:4;stroke-dasharray:none;stroke-opacity:1;enable-background:new" />
      <g
         id="g482"
         transform="matrix(0.25,0,0,0.25,17.67,20.87)"
         style="stroke-width:4">
        <circle
           class="cls-2"
           cx="76.720001"
           cy="91.279999"
           r="13.4"
           id="circle288"
           style="fill:#ffffff;stroke-width:4" />
        <circle
           class="cls-2"
           cx="132.39999"
           cy="61.919998"
           r="13.4"
           id="circle290"
           style="fill:#ffffff;stroke-width:4" />
        <path
           class="cls-2"
           d="m 106.92,125.68 a 32.32,32.32 0 0 1 -22.2,-17 19.32,19.32 0 0 1 -11.4,1.4 43.48,43.48 0 0 0 31.4,26.32 44,44 0 0 0 9.48,1 18.84,18.84 0 0 1 -4,-11.2 11.56,11.56 0 0 1 -3.28,-0.52 z"
           id="path292"
           style="fill:#ffffff;stroke-width:4" />
        <circle
           class="cls-2"
           cx="129.39999"
           cy="125.8"
           r="13.4"
           id="circle294"
           style="fill:#ffffff;stroke-width:4" />
        <path
           class="cls-2"
           d="m 148,120.92 a 44,44 0 0 0 2.2,-51.32 19.4,19.4 0 0 1 -7.52,8.8 32.88,32.88 0 0 1 3.12,22.2 32.32,32.32 0 0 1 -4.2,10.4 18.32,18.32 0 0 1 6.4,9.92 z"
           id="path296"
           style="fill:#ffffff;stroke-width:4" />
        <path
           class="cls-2"
           d="m 75.6,72 h 1 a 18.6,18.6 0 0 1 4,0.4 19.36,19.36 0 0 1 6.08,2.52 32.48,32.48 0 0 1 26.32,-14.08 25.68,25.68 0 0 1 0.4,-3 18.52,18.52 0 0 1 3.68,-7.8 44,44 0 0 0 -41.48,21.96 z"
           id="path298"
           style="fill:#ffffff;stroke-width:4" />
      </g>
    </g>
  </g>
</svg>
