<?xml version="1.0" encoding="UTF-8" standalone="no"?>
<svg
   inkscape:export-ydpi="96"
   inkscape:export-xdpi="96"
   width="16"
   height="16.000055"
   id="svg11300"
   sodipodi:version="0.32"
   inkscape:version="1.1.2 (76b9e6a115, 2022-02-25)"
   sodipodi:docname="ubiquity-16x16.svg"
   inkscape:output_extension="org.inkscape.output.svg.inkscape"
   version="1.0"
   style="display:inline;enable-background:new"
   inkscape:export-filename="/home/stuart/Pictures/disk.png"
   xmlns:inkscape="http://www.inkscape.org/namespaces/inkscape"
   xmlns:sodipodi="http://sodipodi.sourceforge.net/DTD/sodipodi-0.dtd"
   xmlns:xlink="http://www.w3.org/1999/xlink"
   xmlns="http://www.w3.org/2000/svg"
   xmlns:svg="http://www.w3.org/2000/svg"
   xmlns:rdf="http://www.w3.org/1999/02/22-rdf-syntax-ns#"
   xmlns:cc="http://creativecommons.org/ns#"
   xmlns:dc="http://purl.org/dc/elements/1.1/">
  <title
     id="title3004">Suru Icon Theme Template</title>
  <sodipodi:namedview
     stroke="#ef2929"
     fill="#f57900"
     id="base"
     pagecolor="#ffffff"
     bordercolor="#000000"
     borderopacity="0.25490196"
     inkscape:pageopacity="0"
     inkscape:pageshadow="2"
     inkscape:zoom="16"
     inkscape:cx="27.34375"
     inkscape:cy="21.1875"
     inkscape:current-layer="layer7"
     showgrid="false"
     inkscape:grid-bbox="true"
     inkscape:document-units="px"
     inkscape:showpageshadow="false"
     inkscape:window-width="1920"
     inkscape:window-height="1043"
     inkscape:window-x="1920"
     inkscape:window-y="0"
     width="400px"
     height="300px"
     inkscape:snap-nodes="true"
     inkscape:snap-bbox="true"
     gridtolerance="10000"
     inkscape:object-nodes="true"
     inkscape:snap-grids="true"
     showguides="true"
     inkscape:guide-bbox="true"
     inkscape:window-maximized="1"
     inkscape:bbox-paths="true"
     inkscape:snap-bbox-midpoints="true"
     inkscape:snap-global="true"
     inkscape:object-paths="true"
     inkscape:snap-intersection-paths="true"
     inkscape:snap-smooth-nodes="true"
     inkscape:pagecheckerboard="false"
     showborder="false"
     inkscape:document-rotation="0"
     fit-margin-top="0"
     fit-margin-left="0"
     fit-margin-right="0"
     fit-margin-bottom="0">
    <inkscape:grid
       spacingy="1"
       spacingx="1"
       id="grid5883"
       type="xygrid"
       enabled="true"
       visible="true"
       empspacing="4"
       snapvisiblegridlinesonly="true"
       originx="-320"
       originy="-236" />
    <inkscape:grid
       type="xygrid"
       id="grid11592"
       empspacing="2"
       visible="true"
       enabled="false"
       spacingx="0.5"
       spacingy="0.5"
       color="#ff0000"
       opacity="0.1254902"
       empcolor="#ff0000"
       empopacity="0.25098039"
       snapvisiblegridlinesonly="true"
       originx="-320"
       originy="-236" />
  </sodipodi:namedview>
  <defs
     id="defs3">
    <linearGradient
       inkscape:collect="always"
       id="linearGradient927">
      <stop
         style="stop-color:#ffffff;stop-opacity:1;"
         offset="0"
         id="stop923" />
      <stop
         id="stop933"
         offset="0.125"
         style="stop-color:#ffffff;stop-opacity:0.09803922" />
      <stop
         id="stop931"
         offset="0.92500001"
         style="stop-color:#ffffff;stop-opacity:0.09803922" />
      <stop
         style="stop-color:#ffffff;stop-opacity:0.49803922"
         offset="1"
         id="stop925" />
    </linearGradient>
    <clipPath
       clipPathUnits="userSpaceOnUse"
       id="clipPath994">
      <path
         style="color:#000000;display:inline;overflow:visible;visibility:visible;fill:#cdcdcd;fill-opacity:1;fill-rule:nonzero;stroke:none;stroke-width:2;stroke-miterlimit:4;stroke-dasharray:none;stroke-opacity:1;marker:none;enable-background:accumulate"
         d="m 335.73108,62 c -8.82418,0 -9.77365,0.90635 -9.7304,9.74838 v 12.25162 12.25162 c -0.0433,8.84203 0.90622,9.74838 9.7304,9.74838 h 16.53919 c 8.82418,0 9.7304,-0.90625 9.7304,-9.74838 v -12.25162 -12.25162 c 0,-8.84213 -0.90622,-9.74838 -9.7304,-9.74838 z"
         id="path996"
         inkscape:connector-curvature="0"
         sodipodi:nodetypes="scccssscsss" />
    </clipPath>
    <linearGradient
       inkscape:collect="always"
       xlink:href="#linearGradient876"
       id="linearGradient920"
       gradientUnits="userSpaceOnUse"
       gradientTransform="matrix(0,-0.0386186,0.03904659,0,315.4715,253.54546)"
       x1="441.37933"
       y1="240.28154"
       x2="52.9655"
       y2="401.42957" />
    <clipPath
       clipPathUnits="userSpaceOnUse"
       id="clipPath971">
      <path
         style="color:#000000;display:inline;overflow:visible;visibility:visible;opacity:1;fill:#46a926;fill-opacity:1;fill-rule:nonzero;stroke:none;stroke-width:2;stroke-miterlimit:4;stroke-dasharray:none;stroke-opacity:1;marker:none;enable-background:accumulate"
         d="m 327.8652,189 c -4.41209,0 -4.88682,0.45318 -4.8652,4.87419 v 6.12581 6.12581 c -0.0217,4.42101 0.45311,4.87419 4.8652,4.87419 h 8.2696 c 4.41209,0 4.8652,-0.45312 4.8652,-4.87419 v -6.12581 -6.12581 c 0,-4.42106 -0.45312,-4.87419 -4.86521,-4.87419 z"
         id="path973"
         inkscape:connector-curvature="0"
         sodipodi:nodetypes="scccssscsss" />
    </clipPath>
    <clipPath
       clipPathUnits="userSpaceOnUse"
       id="clipPath983">
      <path
         sodipodi:nodetypes="scccssscsss"
         inkscape:connector-curvature="0"
         id="path985"
         d="m 325.09646,237 c -2.80769,0 -3.10979,0.28839 -3.09603,3.10176 v 3.89824 3.89824 c -0.0138,2.81337 0.28834,3.10176 3.09603,3.10176 h 5.8075 c 2.8077,0 3.09604,-0.28835 3.09604,-3.10176 v -3.89824 -3.89824 c 0,-2.8134 -0.28835,-3.10176 -3.09604,-3.10176 z"
         style="color:#000000;display:inline;overflow:visible;visibility:visible;opacity:1;fill:#46a926;fill-opacity:1;fill-rule:nonzero;stroke:none;stroke-width:2;stroke-miterlimit:4;stroke-dasharray:none;stroke-opacity:1;marker:none;enable-background:accumulate" />
    </clipPath>
    <linearGradient
       inkscape:collect="always"
       xlink:href="#linearGradient927"
       id="linearGradient993"
       x1="328"
       y1="237"
       x2="328"
       y2="251"
       gradientUnits="userSpaceOnUse" />
    <clipPath
       clipPathUnits="userSpaceOnUse"
       id="clipPath994-1">
      <path
         style="color:#000000;display:inline;overflow:visible;visibility:visible;fill:#cdcdcd;fill-opacity:1;fill-rule:nonzero;stroke:none;stroke-width:2;stroke-miterlimit:4;stroke-dasharray:none;stroke-opacity:1;marker:none;enable-background:accumulate"
         d="m 335.73108,62 c -8.82418,0 -9.77365,0.90635 -9.7304,9.74838 v 12.25162 12.25162 c -0.0433,8.84203 0.90622,9.74838 9.7304,9.74838 h 16.53919 c 8.82418,0 9.7304,-0.90625 9.7304,-9.74838 v -12.25162 -12.25162 c 0,-8.84213 -0.90622,-9.74838 -9.7304,-9.74838 z"
         id="path996-8"
         inkscape:connector-curvature="0"
         sodipodi:nodetypes="scccssscsss" />
    </clipPath>
    <linearGradient
       inkscape:collect="always"
       id="linearGradient876">
      <stop
         style="stop-color:#b3b3b3;stop-opacity:1"
         offset="0"
         id="stop872" />
      <stop
         style="stop-color:#d9d9d9;stop-opacity:1"
         offset="1"
         id="stop874" />
    </linearGradient>
    <linearGradient
       inkscape:collect="always"
       xlink:href="#linearGradient1392"
       id="linearGradient1394"
       x1="77"
       y1="156"
       x2="227"
       y2="156"
       gradientUnits="userSpaceOnUse"
       gradientTransform="rotate(90,152,156)" />
    <linearGradient
       inkscape:collect="always"
       id="linearGradient1392">
      <stop
         style="stop-color:#e6e6e6;stop-opacity:1;"
         offset="0"
         id="stop1388" />
      <stop
         style="stop-color:#f2f2f2;stop-opacity:1"
         offset="1"
         id="stop1390" />
    </linearGradient>
    <clipPath
       clipPathUnits="userSpaceOnUse"
       id="clipPath999">
      <path
         inkscape:connector-curvature="0"
         style="color:#000000;display:inline;overflow:visible;visibility:visible;opacity:1;fill:#5d5d5d;fill-opacity:1;fill-rule:nonzero;stroke:none;stroke-width:3.826;stroke-linecap:butt;stroke-linejoin:round;stroke-miterlimit:4;stroke-dasharray:none;stroke-dashoffset:0;stroke-opacity:1;marker:none;enable-background:accumulate"
         d="m 152,68 c -48.60106,0 -88,39.39894 -88,88 0,48.60106 39.39894,88 88,88 48.60106,0 88,-39.39894 88,-88 0,-48.60106 -39.39894,-88 -88,-88 z"
         id="path1001"
         sodipodi:nodetypes="sssss" />
    </clipPath>
  </defs>
  <metadata
     id="metadata4">
    <rdf:RDF>
      <cc:Work
         rdf:about="">
        <dc:format>image/svg+xml</dc:format>
        <dc:type
           rdf:resource="http://purl.org/dc/dcmitype/StillImage" />
        <dc:creator>
          <cc:Agent>
            <dc:title>Sam Hewitt</dc:title>
          </cc:Agent>
        </dc:creator>
        <dc:source />
        <cc:license
           rdf:resource="http://creativecommons.org/licenses/by-sa/4.0/" />
        <dc:title>Suru Icon Theme Template</dc:title>
        <dc:subject>
          <rdf:Bag />
        </dc:subject>
        <dc:date />
        <dc:rights>
          <cc:Agent>
            <dc:title />
          </cc:Agent>
        </dc:rights>
        <dc:publisher>
          <cc:Agent>
            <dc:title />
          </cc:Agent>
        </dc:publisher>
        <dc:identifier />
        <dc:relation />
        <dc:language />
        <dc:coverage />
        <dc:description />
        <dc:contributor>
          <cc:Agent>
            <dc:title />
          </cc:Agent>
        </dc:contributor>
      </cc:Work>
      <cc:Work
         rdf:about="">
        <dc:format>image/svg+xml</dc:format>
        <dc:type
           rdf:resource="http://purl.org/dc/dcmitype/StillImage" />
      </cc:Work>
      <cc:License
         rdf:about="http://creativecommons.org/licenses/by-sa/4.0/">
        <cc:permits
           rdf:resource="http://creativecommons.org/ns#Reproduction" />
        <cc:permits
           rdf:resource="http://creativecommons.org/ns#Distribution" />
        <cc:requires
           rdf:resource="http://creativecommons.org/ns#Notice" />
        <cc:requires
           rdf:resource="http://creativecommons.org/ns#Attribution" />
        <cc:permits
           rdf:resource="http://creativecommons.org/ns#DerivativeWorks" />
        <cc:requires
           rdf:resource="http://creativecommons.org/ns#ShareAlike" />
      </cc:License>
    </rdf:RDF>
  </metadata>
  <g
     style="display:inline"
     inkscape:groupmode="layer"
     inkscape:label="Icon"
     id="layer1"
     transform="translate(-320,-236)">
    <g
       style="display:inline"
       inkscape:label="Baseplate"
       id="layer7"
       inkscape:groupmode="layer" />
    <g
       inkscape:groupmode="layer"
       id="layer8"
       inkscape:label="Backgrounds"
       style="display:inline">
      <path
         style="color:#000000;font-style:normal;font-variant:normal;font-weight:normal;font-stretch:normal;font-size:medium;line-height:normal;font-family:sans-serif;font-variant-ligatures:normal;font-variant-position:normal;font-variant-caps:normal;font-variant-numeric:normal;font-variant-alternates:normal;font-feature-settings:normal;text-indent:0;text-align:start;text-decoration:none;text-decoration-line:none;text-decoration-style:solid;text-decoration-color:#000000;letter-spacing:normal;word-spacing:normal;text-transform:none;writing-mode:lr-tb;direction:ltr;text-orientation:mixed;dominant-baseline:auto;baseline-shift:baseline;text-anchor:start;white-space:normal;shape-padding:0;clip-rule:nonzero;display:inline;overflow:visible;visibility:visible;opacity:0.1;isolation:auto;mix-blend-mode:normal;color-interpolation:sRGB;color-interpolation-filters:linearRGB;solid-color:#000000;solid-opacity:1;vector-effect:none;fill:#000000;fill-opacity:1;fill-rule:nonzero;stroke:none;stroke-width:2;stroke-linecap:butt;stroke-linejoin:miter;stroke-miterlimit:4;stroke-dasharray:none;stroke-dashoffset:0;stroke-opacity:1;marker:none;color-rendering:auto;image-rendering:auto;shape-rendering:auto;text-rendering:auto;enable-background:accumulate"
         d="m 325.0957,237 c -0.71904,0 -1.30185,0.0139 -1.83593,0.10352 -0.53409,0.0897 -1.0683,0.27628 -1.47657,0.68359 -0.40826,0.4073 -0.59657,0.94323 -0.68554,1.47851 -0.089,0.53529 -0.10119,1.12048 -0.0977,1.8418 v 2.89258 3.89844 c -0.003,0.71816 0.009,1.30235 0.0977,1.83594 0.089,0.53528 0.27727,1.07121 0.68554,1.47851 0.40827,0.40731 0.94248,0.59394 1.47657,0.68359 0.53408,0.0897 1.11689,0.10352 1.83593,0.10352 h 5.8086 c 0.71904,0 1.30058,-0.0137 1.83398,-0.10352 0.53341,-0.0898 1.06768,-0.27792 1.47461,-0.68554 0.40693,-0.40762 0.59404,-0.94271 0.68359,-1.47656 0.0896,-0.53386 0.10352,-1.11551 0.10352,-1.83594 v -3.89844 -2.89844 c 0,-0.72043 -0.014,-1.30208 -0.10352,-1.83594 -0.0895,-0.53385 -0.27666,-1.06894 -0.68359,-1.47656 -0.40693,-0.40762 -0.9412,-0.59578 -1.47461,-0.68554 -0.5334,-0.0898 -1.11494,-0.10352 -1.83398,-0.10352 z"
         id="path997"
         inkscape:connector-curvature="0"
         sodipodi:nodetypes="scscccccccsscscscscscss" />
      <path
         style="color:#000000;display:inline;overflow:visible;visibility:visible;fill:url(#linearGradient920);fill-opacity:1;fill-rule:nonzero;stroke:none;stroke-width:1;marker:none;enable-background:accumulate"
         d="m 324.8545,236.50001 c -3.04166,0 -3.36894,0.30899 -3.35403,3.32331 v 4.17669 4.17668 c -0.0149,3.01433 0.31237,3.32332 3.35403,3.32332 h 6.29146 c 3.04167,0 3.35404,-0.30895 3.35404,-3.32332 v -4.17668 -4.17669 c 0,-3.01436 -0.31238,-3.32331 -3.35404,-3.32331 z"
         id="path918"
         inkscape:connector-curvature="0"
         sodipodi:nodetypes="scccssscsss" />
      <path
         style="color:#000000;display:inline;overflow:visible;visibility:visible;opacity:0.7;fill:none;fill-opacity:1;fill-rule:nonzero;stroke:url(#linearGradient993);stroke-width:1.85638;stroke-miterlimit:4;stroke-dasharray:none;stroke-opacity:1;marker:none;enable-background:accumulate"
         d="m 325.09646,237 c -2.80769,0 -3.10979,0.28839 -3.09603,3.10176 v 3.89824 3.89824 c -0.0138,2.81337 0.28834,3.10176 3.09603,3.10176 h 5.8075 c 2.8077,0 3.09604,-0.28835 3.09604,-3.10176 v -3.89824 -3.89824 c 0,-2.8134 -0.28835,-3.10176 -3.09604,-3.10176 z"
         id="path937"
         inkscape:connector-curvature="0"
         sodipodi:nodetypes="scccssscsss"
         clip-path="url(#clipPath983)"
         transform="matrix(1.0833332,0,0,1.0714286,-27.333287,-17.428571)" />
      <path
         style="color:#000000;display:inline;overflow:visible;visibility:visible;opacity:0.4;fill:none;fill-opacity:1;fill-rule:nonzero;stroke:#000000;stroke-width:0.976529;stroke-miterlimit:4;stroke-dasharray:none;stroke-opacity:1;marker:none;enable-background:accumulate"
         d="m 331.08651,251.51179 c 2.89732,0 3.44011,-0.30259 3.42488,-3.25454 v -4.25716 -4.25724 c 0.0152,-2.95195 -0.52756,-3.25453 -3.42488,-3.25453 h -6.17331 c -2.8966,0 -3.42488,0.30255 -3.42488,3.25453 v 4.25724 4.25716 c 0,2.95199 0.52828,3.25454 3.42488,3.25454 z"
         id="path958-6-0"
         inkscape:connector-curvature="0"
         sodipodi:nodetypes="scccssscsss" />
    </g>
    <g
       inkscape:groupmode="layer"
       id="layer6"
       inkscape:label="Pictograms"
       style="display:inline">
      <circle
         r="5"
         cy="243"
         cx="328"
         id="circle1588"
         style="color:#000000;display:inline;overflow:visible;visibility:visible;opacity:1;fill:#4d4d4d;fill-opacity:1;fill-rule:nonzero;stroke:none;stroke-width:0.23913;stroke-linecap:butt;stroke-linejoin:miter;stroke-miterlimit:4;stroke-dasharray:0.717391, 0.717391;stroke-dashoffset:0;stroke-opacity:1;marker:none;enable-background:accumulate" />
      <g
         style="display:inline;stroke-width:18.75;enable-background:new"
         transform="matrix(0.05333333,0,0,0.05333333,319.8935,234.67982)"
         id="g1673">
        <path
           sodipodi:nodetypes="sssss"
           inkscape:connector-curvature="0"
           id="path1637"
           d="m 152,231 c -41.42135,0 -75,-33.57864 -75,-75 0,-41.42136 33.57865,-75 75,-75 41.42135,0 75,33.57864 75,75 0,41.42136 -33.57865,75 -75,75 z"
           style="display:inline;opacity:1;fill:url(#linearGradient1394);fill-opacity:1;stroke:none;stroke-width:300;stroke-linecap:round;stroke-linejoin:round;stroke-miterlimit:4;stroke-dasharray:none;stroke-dashoffset:0;stroke-opacity:1;enable-background:new" />
        <ellipse
           ry="32.000008"
           rx="32"
           cy="155.99965"
           cx="151.99992"
           id="ellipse1639"
           style="display:inline;opacity:0.05;fill:#000000;fill-opacity:1;stroke:none;stroke-width:300;stroke-linecap:round;stroke-linejoin:round;stroke-miterlimit:4;stroke-dasharray:none;stroke-dashoffset:0;stroke-opacity:1;enable-background:new" />
        <ellipse
           style="display:inline;opacity:1;fill:#ffffff;fill-opacity:1;stroke:none;stroke-width:300;stroke-linecap:round;stroke-linejoin:round;stroke-miterlimit:4;stroke-dasharray:none;stroke-dashoffset:0;stroke-opacity:1;enable-background:new"
           id="ellipse1641"
           cx="151.99992"
           cy="155.99965"
           rx="20"
           ry="20.000004" />
        <g
           style="opacity:0.1;fill:#000000;fill-opacity:1;stroke-width:18.75"
           id="g1667">
          <circle
             style="opacity:1;fill:#000000;fill-opacity:1;stroke:none;stroke-width:300;stroke-linecap:round;stroke-linejoin:round;stroke-miterlimit:4;stroke-dasharray:none;stroke-dashoffset:0;stroke-opacity:1"
             id="circle1643"
             cx="53.63586"
             cy="185.09996"
             r="2"
             transform="rotate(-30)" />
          <circle
             r="2"
             cy="237.09996"
             cx="53.63586"
             id="circle1645"
             style="opacity:1;fill:#000000;fill-opacity:1;stroke:none;stroke-width:300;stroke-linecap:round;stroke-linejoin:round;stroke-miterlimit:4;stroke-dasharray:none;stroke-dashoffset:0;stroke-opacity:1"
             transform="rotate(-30)" />
          <circle
             r="2"
             cy="183.63586"
             cx="-59.099964"
             id="circle1647"
             style="opacity:1;fill:#000000;fill-opacity:1;stroke:none;stroke-width:300;stroke-linecap:round;stroke-linejoin:round;stroke-miterlimit:4;stroke-dasharray:none;stroke-dashoffset:0;stroke-opacity:1"
             transform="rotate(-60)" />
          <circle
             style="opacity:1;fill:#000000;fill-opacity:1;stroke:none;stroke-width:300;stroke-linecap:round;stroke-linejoin:round;stroke-miterlimit:4;stroke-dasharray:none;stroke-dashoffset:0;stroke-opacity:1"
             id="circle1649"
             cx="-59.099964"
             cy="235.63586"
             r="2"
             transform="rotate(-60)" />
          <circle
             style="opacity:1;fill:#000000;fill-opacity:1;stroke:none;stroke-width:300;stroke-linecap:round;stroke-linejoin:round;stroke-miterlimit:4;stroke-dasharray:none;stroke-dashoffset:0;stroke-opacity:1"
             id="circle1651"
             cx="-156"
             cy="126"
             r="2"
             transform="rotate(-90)" />
          <circle
             r="2"
             cy="178"
             cx="-156"
             id="circle1653"
             style="opacity:1;fill:#000000;fill-opacity:1;stroke:none;stroke-width:300;stroke-linecap:round;stroke-linejoin:round;stroke-miterlimit:4;stroke-dasharray:none;stroke-dashoffset:0;stroke-opacity:1"
             transform="rotate(-90)" />
          <circle
             r="2"
             cy="27.63586"
             cx="-211.09996"
             id="circle1655"
             style="opacity:1;fill:#000000;fill-opacity:1;stroke:none;stroke-width:300;stroke-linecap:round;stroke-linejoin:round;stroke-miterlimit:4;stroke-dasharray:none;stroke-dashoffset:0;stroke-opacity:1"
             transform="rotate(-120)" />
          <circle
             style="opacity:1;fill:#000000;fill-opacity:1;stroke:none;stroke-width:300;stroke-linecap:round;stroke-linejoin:round;stroke-miterlimit:4;stroke-dasharray:none;stroke-dashoffset:0;stroke-opacity:1"
             id="circle1657"
             cx="-211.09996"
             cy="79.635864"
             r="2"
             transform="rotate(-120)" />
          <circle
             transform="rotate(-150,152,156)"
             r="2"
             cy="130"
             cx="152"
             id="circle1659"
             style="display:inline;opacity:1;fill:#000000;fill-opacity:1;stroke:none;stroke-width:300;stroke-linecap:round;stroke-linejoin:round;stroke-miterlimit:4;stroke-dasharray:none;stroke-dashoffset:0;stroke-opacity:1;enable-background:new" />
          <circle
             transform="rotate(-150,152,156)"
             style="display:inline;opacity:1;fill:#000000;fill-opacity:1;stroke:none;stroke-width:300;stroke-linecap:round;stroke-linejoin:round;stroke-miterlimit:4;stroke-dasharray:none;stroke-dashoffset:0;stroke-opacity:1;enable-background:new"
             id="circle1661"
             cx="152"
             cy="182"
             r="2" />
          <circle
             r="2"
             cy="-182"
             cx="-152"
             id="circle1663"
             style="opacity:1;fill:#000000;fill-opacity:1;stroke:none;stroke-width:300;stroke-linecap:round;stroke-linejoin:round;stroke-miterlimit:4;stroke-dasharray:none;stroke-dashoffset:0;stroke-opacity:1"
             transform="scale(-1)" />
          <circle
             style="opacity:1;fill:#000000;fill-opacity:1;stroke:none;stroke-width:300;stroke-linecap:round;stroke-linejoin:round;stroke-miterlimit:4;stroke-dasharray:none;stroke-dashoffset:0;stroke-opacity:1"
             id="circle1665"
             cx="-152"
             cy="-130"
             r="2"
             transform="scale(-1)" />
        </g>
        <ellipse
           ry="16.000004"
           rx="16"
           cy="155.99965"
           cx="151.99992"
           id="ellipse1669"
           style="display:inline;opacity:0.1;fill:#000000;fill-opacity:1;stroke:none;stroke-width:300;stroke-linecap:round;stroke-linejoin:round;stroke-miterlimit:4;stroke-dasharray:none;stroke-dashoffset:0;stroke-opacity:1;enable-background:new" />
        <ellipse
           ry="4.000001"
           rx="4"
           cy="156.00012"
           cx="152.00037"
           id="ellipse1671"
           style="display:inline;opacity:1;fill:#888888;fill-opacity:1;stroke:none;stroke-width:300;stroke-linecap:round;stroke-linejoin:round;stroke-miterlimit:4;stroke-dasharray:none;stroke-dashoffset:0;stroke-opacity:1;enable-background:new" />
      </g>
      <g
         style="display:inline;stroke-width:17.7778;enable-background:new"
         transform="matrix(0.05233474,-0.02061886,0.02061886,0.05233474,305.85292,244.29336)"
         id="g1727"
         inkscape:transform-center-x="-2.6475068"
         inkscape:transform-center-y="-1.8731172">
        <path
           style="display:inline;opacity:1;fill:#ffffff;fill-opacity:1;stroke:none;stroke-width:284.444;stroke-linecap:round;stroke-linejoin:round;stroke-miterlimit:4;stroke-dasharray:none;stroke-dashoffset:0;stroke-opacity:1;enable-background:new"
           d="m 392.7526,156.91646 c 0,0 -117.99478,44.0399 -124.39639,45.7552 -6.40159,1.71532 -12.98163,-2.08367 -14.69694,-8.48526 -1.7153,-6.40159 2.08369,-12.98164 8.48528,-14.69695 6.40161,-1.71529 130.60805,-22.57299 130.60805,-22.57299 z"
           id="path1723"
           inkscape:connector-curvature="0"
           sodipodi:nodetypes="csssc" />
        <circle
           style="display:inline;opacity:1;fill:#808080;fill-opacity:1;stroke:none;stroke-width:284.444;stroke-linecap:round;stroke-linejoin:round;stroke-miterlimit:4;stroke-dasharray:none;stroke-dashoffset:0;stroke-opacity:1;enable-background:new"
           id="circle1725"
           cx="265.24741"
           cy="191.08354"
           r="4" />
      </g>
      <path
         sodipodi:nodetypes="scsss"
         id="path2-3-7-0-1-7"
         d="m 328,240.9999 c 0,2.20922 -3.99991,5.5001 -3.99991,5.5001 0,0 -4.00009,-3.29088 -4.00009,-5.5001 0,-2.20907 1.7909,-3.9999 4.00009,-3.9999 2.2092,0 3.99991,1.79079 3.99991,3.9999 z"
         inkscape:connector-curvature="0"
         style="display:inline;opacity:0.2;fill:#000000;fill-opacity:1;stroke:none;stroke-width:0.02825;stroke-miterlimit:4;stroke-dasharray:none;stroke-opacity:1;enable-background:new" />
      <path
         sodipodi:nodetypes="scsss"
         id="path2-3-7-0-1"
         d="m 328.00009,239.9999 c 0,2.20922 -3.99991,5.5001 -3.99991,5.5001 0,0 -4.00009,-3.29088 -4.00009,-5.5001 0,-2.20907 1.7909,-3.9999 4.00009,-3.9999 2.2092,0 3.99991,1.79079 3.99991,3.9999 z"
         inkscape:connector-curvature="0"
         style="display:inline;fill:#e95420;fill-opacity:1;stroke:none;stroke-width:0.02825;stroke-miterlimit:4;stroke-dasharray:none;stroke-opacity:1;enable-background:new" />
      <path
         style="opacity:0.7;fill:#e95420;fill-opacity:1;stroke:none;stroke-width:0.25;stroke-linecap:round;stroke-linejoin:round;stroke-miterlimit:4;stroke-dasharray:none;stroke-opacity:1"
         d="m 327.41211,240.05859 a 3,3 0 0 0 -2.41211,2.94141 3,3 0 0 0 3,3 3,3 0 0 0 3,-3 3,3 0 0 0 -0.32031,-1.33984 l -0.89063,0.44531 a 2,2 0 0 1 0.21094,0.89453 2,2 0 0 1 -2,2 2,2 0 0 1 -2,-2 2,2 0 0 1 1.60742,-1.95898 z"
         id="path3374" />
      <g
         id="g2287">
        <circle
           class="cls-2"
           cx="321.79501"
           cy="239.955"
           r="0.83749998"
           id="circle8-0"
           style="fill:#ffffff;stroke-width:1" />
        <circle
           class="cls-2"
           cx="325.27499"
           cy="238.12"
           r="0.83749998"
           id="circle10-9"
           style="fill:#ffffff;stroke-width:1" />
        <path
           class="cls-2"
           d="m 323.6825,242.105 a 2.02,2.02 0 0 1 -1.3875,-1.0625 1.2075,1.2075 0 0 1 -0.7125,0.0875 2.7175,2.7175 0 0 0 1.9625,1.645 2.75,2.75 0 0 0 0.5925,0.0625 1.1775,1.1775 0 0 1 -0.25,-0.7 0.7225,0.7225 0 0 1 -0.205,-0.0325 z"
           id="path12-3"
           style="fill:#ffffff;stroke-width:1" />
        <circle
           class="cls-2"
           cx="325.08749"
           cy="242.1125"
           r="0.83749998"
           id="circle14-6"
           style="fill:#ffffff;stroke-width:1" />
        <path
           class="cls-2"
           d="m 326.25,241.8075 a 2.75,2.75 0 0 0 0.1375,-3.2075 1.2125,1.2125 0 0 1 -0.47,0.55 2.055,2.055 0 0 1 0.195,1.3875 2.02,2.02 0 0 1 -0.2625,0.65 1.145,1.145 0 0 1 0.4,0.62 z"
           id="path16-0"
           style="fill:#ffffff;stroke-width:1" />
        <path
           class="cls-2"
           d="m 321.725,238.75 h 0.0625 a 1.1625,1.1625 0 0 1 0.25,0.025 1.21,1.21 0 0 1 0.38,0.1575 2.03,2.03 0 0 1 1.645,-0.88 1.605,1.605 0 0 1 0.025,-0.1875 1.1575,1.1575 0 0 1 0.23,-0.4875 2.75,2.75 0 0 0 -2.5925,1.3725 z"
           id="path18-6"
           style="fill:#ffffff;stroke-width:1" />
      </g>
    </g>
  </g>
</svg>
